<svg width="278" height="278" viewBox="0 0 278 278" fill="none" xmlns="http://www.w3.org/2000/svg">
<path d="M126.207 26.2965C125.192 25.6179 124.206 24.4623 123.427 23.5054C119.314 18.4494 115.989 10.0542 119.855 3.97009C121.994 0.605308 127.034 -1.38727 130.574 1.14379C131.819 2.02703 132.644 3.38428 132.856 4.89586C133.038 6.26873 132.788 7.09663 132.408 8.36685C135.197 8.86869 137.991 9.39427 139.914 11.8449C140.532 12.6332 140.624 13.6016 141.287 14.1805C141.711 14.0796 141.539 14.1446 141.838 13.8571C142.787 12.9505 144.256 12.5842 145.558 12.6413C148.415 12.7667 151.293 15.7926 151.261 18.6553C151.258 18.9747 151.182 19.2365 150.974 19.4899C149.653 19.9008 147.973 17.3838 146.056 18.2583C140.44 20.8195 142.901 26.3777 147.243 28.5227C146.887 27.4473 146.046 24.2128 147.388 23.6545C149.085 24.3864 150.133 26.0378 152.127 26.5037C154.251 27 156.321 27.2815 158.489 27.5973C164.592 28.4857 170.005 31.6868 173.463 36.828C173.583 37.0064 173.674 37.2759 173.745 37.4779L174.162 37.121C174.033 35.2051 175.406 33.3203 177.327 32.9425C176.909 30.6133 177.133 28.6338 178.51 26.6438C179.661 25.0044 181.435 23.9101 183.417 23.6175C184.758 23.4139 187.545 23.4876 187.722 25.2662C187.219 26.3027 185.764 26.7585 185.155 28.5411C183.369 33.7732 187.144 38.8532 185.87 44.3412C185.325 46.6861 184.926 48.9391 183.662 51.0368C183.138 51.9627 182.113 53.5371 181.797 54.4402L181.824 54.3478L182.094 54.2443C183.704 52.2452 185.233 50.1226 186.959 48.2764C193.613 41.1608 201.288 36.6423 211.313 38.9693C215.04 39.8346 219.794 41.3266 223.309 39.041C224.527 38.2655 226.05 37.4516 226.25 40.18C226.387 42.054 224.302 43.6945 222.812 44.7365C230.991 45.0822 227.831 40.4816 230.54 40.3742C231.284 40.6697 231.458 41.1694 231.789 41.8678C233.379 45.2098 232.218 49.5864 228.421 50.967C228.159 51.0614 227.894 51.149 227.628 51.2298C230.224 52.2194 232.419 52.4082 235.079 51.3019C236.451 50.7307 237.54 49.4091 236.624 47.9289C235.306 45.8021 233.493 44.3066 234.216 41.4721C234.463 40.4939 235.099 39.6589 235.976 39.1601C237.064 38.5394 238.81 38.4116 239.957 38.8545C245.456 40.979 246.65 46.209 244.924 51.1959C243.458 55.3493 240.404 58.7516 236.433 60.6569C235.591 61.0678 234.82 61.3363 233.931 61.6142C238.216 63.5039 242.783 64.6302 247.585 64.6325C250.529 64.6338 256.048 64.4341 257.857 61.3994C258.45 60.4037 257.818 58.3279 259.215 57.772C259.845 57.4633 260.884 57.5796 261.136 57.1982C261.035 56.0318 260.877 54.8256 261.015 53.718C261.98 45.9775 272.047 44.7641 275.667 51.2176C275.967 51.7513 276.578 52.9541 277.006 53.2268C277.393 53.1198 277.451 53.0548 277.816 53.0935V55.3561C277.675 56.4527 277.748 58.0937 277.458 59.0548C271.623 78.3854 243.889 77.6178 230.651 67.5563C225.76 69.1352 224.906 65.1919 224.199 65.2024C223.47 66.5661 223.07 67.5426 221.967 68.6695C217.555 73.1809 210.683 72.5168 207.132 67.4638C205.661 72.944 199.892 73.1771 196.862 68.8696C194.428 72.8541 188.724 74.0179 184.749 71.6518C183.995 71.2021 183.371 70.4614 182.758 69.8285C184.8 70.1434 185.557 70.4139 187.397 69.4687C190.147 68.057 191.598 59.9448 194.401 60.1878C194.38 60.7742 193.694 61.4475 193.474 62.0868C192.255 65.6349 191.706 68.6764 188.362 70.8421C193.053 70.3202 194.644 69.3314 196.493 64.8662C198.242 67.5776 198.966 69.7984 202.833 69.2861L202.995 69.0941C200.741 67.79 199.349 67.1273 198.682 64.4043C197.724 60.4906 200.629 56.3349 204.171 54.8797C204.723 54.6601 205.701 54.7801 206.168 54.3889C205.377 53.5154 202.289 54.0369 201.182 54.1539C199.885 54.291 195.452 56.5638 195.159 57.6547C195.526 58.0015 195.665 57.9672 196.187 58.1246L196.306 58.3513C195.556 59.6877 194.247 59.3147 192.999 59.0624C192.01 58.2581 193.865 56.1212 194.499 55.5067C197.832 52.2821 202.898 52.0504 207.097 53.4736C207.72 53.6844 210.947 55.0835 211.134 55.0344C211.089 54.5405 210.23 53.6767 209.819 53.4122C198.03 45.8092 183.733 57.8034 176.059 66.3579C174.912 67.6367 174.156 69.1109 172.989 70.3681C169.202 74.6288 164.867 76.6881 159.261 77.3208C153.414 77.9809 149.081 76.4907 143.682 74.6625C143.057 75.6468 142.83 75.9358 142.005 76.7712C142.591 77.4442 143.518 78.4725 143.864 79.2655C146.67 85.6917 140.343 92.9402 133.897 93.2446C133.012 93.2864 131.936 93.2089 131.04 93.1781C129.492 98.5282 124.051 100.195 119.6 97.1234C115.829 98.5649 113.779 96.9488 111.353 94.2381C112.222 96.1015 112.67 97.6376 112.562 99.7622C112.307 104.793 114.148 107.127 111.713 112.003C113.375 111.122 116.653 110.439 118.003 112.098C117.911 113.004 113.831 116.733 115.171 117.595C117.595 119.154 119.537 120.074 117.526 123.713C119.624 126.215 120.517 128.697 120.263 131.972C120.156 133.346 119.378 137.532 117.699 137.604C116.656 137.006 116.156 135.48 115.261 134.657C111.705 131.386 105.542 130.892 101.007 131.268C107.929 133.504 111.552 141.563 110.267 148.517C110.074 149.561 109.241 150.544 108.462 151.226L108.308 151.364L108.215 151.445C108.77 141.26 98.3645 141.137 91.7226 138.208C95.4717 142.359 96.5381 149.101 96.3393 154.637C96.0483 162.74 90.7528 175.232 81.006 174.881C75.1551 174.672 70.7203 167.47 76.3761 163.372C76.8134 163.042 77.9189 162.367 78.0923 161.924C77.2937 160.197 76.1018 157.828 75.8338 155.978C75.8552 155.034 75.8283 153.152 76.1349 152.218C76.1837 152.07 76.5545 152.082 76.6903 151.563C76.2699 151.408 76.293 151.43 75.8429 151.494C75.159 152.151 75.3555 153.864 75.2985 155.014C73.7349 166.534 68.5918 167.318 61.569 174.821C54.5826 182.284 45.9348 195.679 51.0043 205.951C51.3374 206.659 52.074 207.543 52.6272 208.081L52.7335 208.003C52.3065 206.696 51.5917 205.264 51.3021 203.94C50.5783 200.632 50.9206 196.911 52.3912 193.856C53.1069 192.367 55.6955 189.069 57.413 189.394C58.0702 190.116 57.7077 190.203 58.3743 190.521L58.7998 190.4C58.8799 190.076 58.8758 190.016 58.889 189.679C59.5181 188.829 60.3056 188.577 61.2277 188.099C65.9894 185.633 68.7012 185.034 68.457 179.111C69.6767 180.483 70.4636 181.51 70.7911 183.409C71.3716 186.777 70.5335 190.187 67.8806 192.467C67.6168 192.693 67.3425 192.906 67.0588 193.107C71.4089 197.098 70.2542 201.417 65.5744 204.31C67.0873 205.478 68.2695 206.626 68.9196 208.464C70.4041 212.662 69.336 218.195 65.4383 220.737C64.7155 221.208 64.0004 221.675 63.2592 222.121C63.3678 222.498 63.2487 222.488 63.5982 222.659C66.0148 223.843 65.9073 227.067 64.9045 229.177C70.7869 238.028 73.5499 248.604 71.4586 259.12C70.6037 263.419 68.7903 267.952 66.1738 271.409C62.8103 275.852 57.4796 278.872 51.8281 277.715C49.13 277.164 46.5418 275.732 45.0271 273.373C43.8286 271.527 43.4462 269.267 43.9709 267.13C45.1559 262.252 49.5506 260.431 54.122 261.661L54.4082 261.741C54.3749 257.153 56.4827 258.952 58.1521 258.127C61.3511 256.546 61.8723 249.257 61.8581 246.152C61.8493 242.549 61.2631 238.97 60.1217 235.553C59.7112 234.331 59.0949 233.024 58.7477 231.895C57.1473 241.794 42.6965 250.488 36.7546 239.124C35.1205 235.999 37.1215 231.672 41.061 232.653C43.0618 233.151 45.532 236.033 47.7371 234.89C50.6795 232.675 49.8161 228.108 48.8811 225.454C48.3332 228.564 45.8187 231.014 42.4169 230.942C41.5059 230.923 40.2464 230.332 39.445 229.92C38.8666 229.598 37.7771 228.76 38.1636 228.032C38.995 226.468 41.0281 227.442 41.9359 225.509C42.7478 223.782 42.6677 222.592 42.6703 220.797C41.5146 222.632 37.8489 225.871 36.0968 223.149C35.9671 221.836 37.3961 220.737 37.7054 219.631C38.7648 215.842 37.804 211.381 37.0935 207.585C34.5869 194.19 43.4478 185.011 53.2179 177.462C53.6535 177.065 54.0829 176.662 54.5058 176.251C54.0628 176.338 54.1153 176.305 53.7124 176.48L53.077 177.007C52.0533 177.779 50.2489 179.182 49.172 179.749C44.5176 182.205 39.8888 181.999 34.9007 180.838C33.1271 180.425 30.6948 180 28.922 180.333C26.469 180.793 25.6735 181.818 24.3969 183.692C20.9401 179.617 23.2573 174.34 27.7596 172.393C29.0967 171.813 30.3024 171.863 31.7181 171.886C31.9234 171.638 32.1311 171.394 32.3409 171.15C33.7631 169.504 34.5563 169.293 36.6085 169.149C27.2155 162.647 27.5642 154.836 26.1515 144.918C25.9751 143.68 23.4001 141.954 23.4353 140.697C24.3036 139.27 27.6757 140.379 28.9284 140.739C29.2515 139.364 25.615 136.931 24.3557 136.484C22.2477 135.737 18.8684 136.433 18.1011 138.818C17.4764 140.759 18.3662 142.078 19.208 143.774L19.0632 144.181C16.5531 146.368 9.53116 140.759 14.2269 134.468C10.7565 133.154 9.30007 130.208 8.78883 126.714C6.11475 128.539 2.59959 127.629 0.904563 124.937C-1.52454 121.078 1.3356 116.163 4.79008 114.034C7.69568 112.244 10.409 112.182 13.6488 112.907L13.2115 111.054C11.6009 109.697 9.92614 109.276 8.97618 107.078C7.40813 103.45 9.77165 99.9868 13.1436 98.6567C12.9723 95.6171 13.2975 93.9252 15.8519 92.1268C13.4278 89.9357 12.5852 87.4403 13.1469 84.2275C11.4557 80.6525 11.4341 78.2666 14.6949 75.5724C11.7642 72.6268 12.1404 68.4107 15.3946 65.8853C14.2411 57.5909 21.347 55.9778 27.4491 59.1498C27.928 58.6614 28.283 58.3276 28.861 57.9699C33.4999 55.0997 35.5631 58.1366 39.3825 58.9775C41.0168 57.4555 41.3439 57.467 43.537 57.1328C32.4935 55.0216 28.7978 49.1104 31.301 38.3697C31.613 37.0308 32.5719 35.7588 33.4056 34.7166C32.8449 34.0567 32.2967 33.4297 31.8277 32.7271C28.8141 28.2116 31.7779 21.7526 37.3647 21.6909C38.3243 21.6804 38.8524 21.8395 39.7469 22.0729C43.7435 19.5349 46.1527 21.3724 48.7601 24.5721C50.4334 23.7712 51.818 23.317 53.6743 23.9459C57.4657 25.2304 59.3808 27.8679 61.1546 31.1786C61.159 27.7755 61.0263 26.9046 58.6583 24.3712C53.6613 19.0251 59.7668 8.8057 67.0605 12.3531C67.7727 9.18592 69.5361 6.63302 72.7782 5.64122C76.5852 4.4767 79.6973 6.07428 80.8101 9.88958C81.6586 9.64026 82.5005 9.47679 83.3894 9.49113C85.0066 9.50358 86.5485 10.1763 87.6577 11.3532C89.1484 12.9039 89.4248 14.2587 89.4092 16.2586C90.7301 16.6487 91.0705 16.7648 92.1076 17.613C93.8432 14.666 98.4515 11.3046 102.074 11.6094C103.531 11.732 104.226 12.3646 105.099 13.414C107.246 11.9204 110.441 11.0836 112.947 12.0617C114.433 12.6397 115.622 13.7947 116.242 15.2635C116.635 16.1938 116.784 17.1485 116.784 18.2189C116.785 20.0541 114.691 22.1541 115.394 23.9708C115.657 24.6495 117.344 24.9505 118.053 25.1631C120.247 25.8209 121.194 26.6315 122.279 28.6436C123.698 28.1285 124.331 28.0002 125.81 27.8561C126.733 27.7665 127.523 28.0148 128.128 27.7793C127.561 27.2981 126.877 26.8662 126.207 26.2965ZM139.396 31.0137C141.201 31.8659 143.543 31.6373 145.419 31.2239C144.84 31.1376 143.958 31.0808 143.367 31.061C139.36 30.9268 135.291 29.0231 132.63 25.9487C131.553 25.2297 129.317 22.8699 128.438 21.8503C125.147 17.8916 124.824 16.0711 125.092 11.1891C124.378 10.251 121.598 7.67578 123.469 6.42293C123.798 6.20373 124.128 6.11888 124.525 6.1823C124.848 6.48461 124.859 6.62346 125.026 7.03567C126.381 7.87617 128.168 6.09904 127.568 5.02559C125.932 2.09364 122.458 5.09031 121.797 7.46193C120.137 13.4155 124.203 19.8847 128.296 24.0187C131.307 27.0844 135.245 29.7988 139.396 31.0137ZM55.5347 174.861C56.6507 174.257 57.4511 173.801 58.5051 173.103C53.4161 174.213 48.8882 174.388 43.862 172.666C43.0032 172.294 41.0637 171.845 40.364 171.289C37.0751 168.674 37.5513 172.744 38.7282 174.498C41.567 178.726 48.8246 177.46 52.5609 176.062C53.6325 175.73 54.5096 175.319 55.5347 174.861ZM175.816 40.7309C175.827 40.749 175.839 40.7673 175.85 40.7855C178.942 46.6609 179.68 53.4922 177.919 59.8932C181.756 54.9571 184.352 44.0466 178.991 39.0896C177.788 37.9774 176.272 38.3977 175.371 39.6948L175.816 40.7309ZM132.996 29.8626C135.282 31.1441 139.27 33.0061 141.932 32.9097L142.093 32.7469C141.236 32.346 139.545 32.0343 138.482 31.6512C134.503 30.5544 130.41 27.5373 127.481 24.6799C125.8 23.1911 123.575 19.8802 122.454 17.885C119.98 13.4121 118.583 4.1059 125.409 2.77226C127.067 2.44837 129.109 3.70107 129.078 5.60604C129.032 8.38712 126.394 8.14446 125.492 9.06531C125.729 9.35561 126.11 9.48925 126.481 9.55266C129.526 10.0732 132.683 6.22964 130.581 3.53384C128.611 1.02561 125.114 1.13622 122.781 3.04591C117.72 7.18987 119.366 14.3266 122.191 19.2552C123.203 21.0216 124.336 22.436 125.595 23.9935C128.137 26.3896 129.851 28.1722 132.996 29.8626ZM128.674 20.5581C129.116 21.1305 129.196 21.3123 129.802 21.6584C128.312 17.6525 125.952 17.1465 128.949 12.2049C127.811 12.066 127.195 11.9618 126.083 11.6918C125.971 15.6891 126.452 17.1772 128.674 20.5581ZM44.1306 103.237C44.5094 105.422 44.6136 107.328 46.652 108.685C49.0692 110.293 52.0631 109.562 53.91 107.535C55.7773 111.218 57.1379 111.175 60.7816 109.512C63.3382 108.345 65.435 105.787 66.098 103.163C68.4235 93.9617 62.3287 92.0954 56.0326 97.8749C55.1262 98.707 54.7395 99.451 54.0208 100.305C55.4821 95.9072 58.3745 93.7403 62.8769 92.923C61.6714 92.0702 61.1206 91.4465 59.6982 91.0347L59.7137 90.8145L60.1938 90.5007C60.1996 90.4465 60.1297 90.1951 60.114 90.1308C59.6637 89.7074 58.2988 89.0344 57.7133 88.8857C53.141 87.7248 48.9424 89.873 45.1551 91.8989C48.3599 87.5909 55.8869 86.4569 60.7279 88.0638C58.825 86.023 56.9341 84.7339 54.0749 84.5241C53.7396 84.4995 53.6679 84.5053 53.3726 84.3339C53.6895 84.0681 54.0182 84.0776 54.4732 83.9886C55.524 84.0935 56.4523 84.1507 57.4336 84.5787C57.8013 84.7203 58.3978 85.0377 58.7178 84.7966C58.4411 84.4772 58.3153 84.4769 57.9154 84.3294C57.0745 83.8809 56.1531 83.6036 55.2043 83.5135C53.3235 83.176 51.8917 82.6197 51.2969 84.843C50.9643 85.2277 49.841 85.4524 49.2916 85.6548C46.1102 86.827 42.3496 88.0771 40.9825 91.4931C40.1087 93.6766 40.4708 94.456 40.41 96.6649C40.4025 96.941 39.9344 98.2503 39.8162 98.5816C40.6349 101.67 40.6715 102.99 44.1306 103.237ZM121.315 60.94C123.475 62.1824 122.629 61.7987 123.23 63.6812C123.657 63.963 124.218 63.64 124.688 63.4445C126.76 62.5814 128.314 61.9636 130.542 61.7105C129.723 62.2174 126.358 63.8257 126.013 64.2649L126.168 64.5534C126.743 64.682 126.856 64.6864 127.445 64.6341C127.903 64.8869 127.739 64.712 127.971 65.1608C127.349 65.3682 126.879 65.4559 126.414 65.9034L126.45 66.1258C127.777 66.5331 133.371 65.7281 134.781 66.806L134.719 67.0216C133.93 67.3652 128.69 67.111 127.723 67.8575C127.736 67.9601 127.748 68.1333 127.784 68.219C128.641 68.6763 128.741 68.3422 129.224 68.5449L128.964 68.8536C128.35 69.0113 128.57 68.8455 128.225 69.2842C128.13 70.0027 128.373 70.4637 128.514 71.1743C130.454 71.3508 135.161 71.8869 136.95 72.5929L137.049 72.7833C136.115 73.267 130.693 73.2963 129.313 73.3063C130.352 73.7537 134.307 74.5426 134.566 75.0817C133.808 75.6284 132.523 75.5631 131.573 75.6859C132.93 76.8543 133.852 77.4429 134.932 78.9084C133.994 78.5478 132.088 77.7417 131.141 78.2131C131.173 78.5915 132.685 79.7466 133.103 80.2232C131.938 79.8943 129.811 78.7022 128.815 78.8485L128.68 79.0646C128.861 79.6509 128.978 79.7699 129.333 80.2891C129.216 80.6412 129.28 80.5381 129.042 80.7967C129.555 81.6177 130.784 82.6549 131.097 83.5392C131.11 84.1984 131.128 84.2195 131.446 84.815L131.301 85.1317C130.205 84.2777 128.437 82.4828 127.05 82.3635C126.117 82.8621 126.911 84.115 127.237 84.8604C126.617 84.2795 125.642 83.3301 124.736 83.516C124.348 84.4435 125.263 85.8937 125.343 86.9324C125.388 87.5279 125.37 88.0699 125.356 88.6629C124.07 86.7705 122.157 83.0913 119.962 82.1676L119.922 82.3416C120.403 83.3559 121.005 83.6947 121.599 84.5321C122.345 85.5843 122.796 88.049 122.546 89.3336L122.373 89.428C121.95 88.9235 121.533 87.7593 121.289 87.0862C120.671 85.3858 118.045 81.1037 115.952 81.8032C119.134 83.7607 119.748 85.5924 119.872 89.1705C119.185 87.7481 117.61 83.1924 115.983 82.8228C118.295 86.7126 119.233 89.3063 116.44 93.3475C116.645 90.0953 116.769 86.9537 114.702 84.2092C114.229 83.7726 114.26 83.6593 113.726 83.5394C113.722 83.9281 113.851 83.9557 114.21 84.3526C115.37 85.97 115.449 86.5683 115.574 88.4767C115.742 91.0355 114.082 91.5175 113.35 93.3243C113.945 94.5183 116.897 95.6593 118.172 94.9134C120.615 93.5281 121.362 95.8723 123.683 96.2408C125.246 96.4887 126.61 96.234 127.958 95.213C129.182 94.2863 129.308 91.9946 130.186 90.8829C130.418 90.5897 133.442 90.6432 133.853 90.6204C137.932 90.3953 140.858 87.5302 141.649 83.6136C142.264 80.5742 140.819 78.8799 139.203 76.596C139.707 75.651 141.851 74.6729 142.008 73.3364C142.7 67.4159 139.83 64.6028 134.583 63.4672C138.595 60.1154 133.817 57.2593 130.528 56.4608C129.413 56.8593 128.363 57.5567 127.36 58.1955C125.143 59.6073 123.834 60.29 121.315 60.94ZM64.3359 142.129C67.9372 144.661 69.9492 147.553 70.964 151.915C71.4235 153.89 71.6617 160.621 68.6371 160.702C68.348 160.378 68.4836 159.304 68.4409 158.803C67.5135 147.922 55.8271 150.777 48.7278 152.591C47.1709 152.99 44.5069 152.192 42.9939 152.487C41.6133 153.751 41.5805 156.182 41.8215 157.92C43.0828 164.555 50.4577 169.413 56.9194 169.578C61.4355 169.692 66.188 169.009 68.7201 164.788C71.9118 159.619 73.0876 153.288 71.9021 147.321C71.4949 145.274 69.831 140.646 67.3391 140.617C66.1023 141.521 65.845 141.812 64.3359 142.129ZM158.234 43.3281C158.366 45.4072 158.9 47.2687 158.689 49.3607C158.249 53.7002 156.065 57.7933 156.767 62.2047C157.332 65.7552 159.825 69.2427 163.57 69.7465C164.072 69.8113 166.125 69.4782 166.221 69.7969C163.768 74.3241 157.106 72.5249 153.472 70.6487C150.214 68.9661 149.16 66.9233 147.495 63.943C147.98 66.1406 148.328 66.9096 147.335 68.9718C147.336 69.5388 147.419 69.61 147.883 70.0913C150.44 72.8045 155.335 73.6555 158.796 73.7173C162.227 73.7786 169.294 71.4015 171.514 68.8127C176.68 62.7837 175.339 50.4411 169.305 45.299C166.904 43.2536 164.647 41.9664 161.558 42.1093C161.385 42.1166 161.21 42.127 161.036 42.1407C159.659 42.3491 159.358 42.4995 158.234 43.3281ZM37.824 35.2921C36.454 35.7476 34.2904 36.599 35.2855 38.4801C36.3749 40.5394 38.9542 41.8034 39.7729 44.0296C39.9806 44.6186 40.0465 45.9902 40.1241 46.6785C42.6958 47.6305 45.0024 48.3294 46.8069 50.5869C47.2981 51.2016 47.7812 52.2385 48.3505 52.6509L48.5157 52.5385C48.7449 49.9261 46.525 45.0739 45.0567 42.9911C44.7846 42.6051 44.7487 42.4313 44.9744 42.1777L45.1787 42.118L45.1902 41.8426C44.2783 40.233 42.6221 38.5008 41.231 37.2979C40.4396 36.746 40.2167 36.5085 39.5482 35.8248C40.4772 36.1422 41.2952 36.5977 42.1669 37.0478C45.2604 39.0044 46.6489 40.6837 48.8258 43.6316C49.6236 44.712 49.7966 45.9741 50.3455 46.7272L50.5434 46.6745C50.7772 46.0316 50.2194 45.1137 50.0436 44.498C49.0638 41.0654 46.7215 38.655 45.0452 35.7009L44.9616 35.5502C47.4132 37.6305 49.3779 39.5194 50.7668 42.4856C51.2138 43.4402 51.4453 44.2457 51.9282 45.2353C51.9981 40.628 50.546 38.1608 48.2257 34.3077C47.3818 33.3333 44.5712 30.6394 44.1832 29.8677C45.4469 30.5444 47.2925 31.9609 48.3306 32.9545C50.2577 34.3934 52.3757 37.6991 53.0665 40.0202C53.19 40.4354 53.4767 41.7544 53.8386 41.859C53.985 40.4961 53.2511 37.9809 52.8551 36.6188C53.1507 36.3753 53.2505 36.1723 53.6246 35.9108C54.7464 37.5433 54.989 38.327 55.701 40.1505C57.0106 39.6259 55.5193 34.7058 54.9389 33.5932C54.1673 32.1143 53.3907 31.3981 52.4685 30.106C55.5565 31.6277 57.9945 35.3673 58.5322 38.728C59.8369 38.9616 60.2656 39.2816 61.3496 39.9876C61.1999 38.1747 61.1183 36.7166 60.5029 34.7537C59.2838 30.8598 56.0115 26.6315 51.6751 26.2565C50.7428 26.1759 49.5677 27.761 48.2988 26.6819C45.487 24.2905 43.9758 20.9774 40.453 24.7037C38.6245 24.2254 37.2597 23.8491 35.4974 24.8379C32.8359 26.3309 33.105 29.5738 34.5949 31.8149C35.509 33.1901 36.7252 34.1192 37.824 35.2921ZM67.9792 46.0221C67.734 46.6142 67.6633 46.521 67.7592 47.0467L68.0029 46.9908C68.2153 46.6219 68.2567 46.5676 68.3866 46.168C69.4537 43.4755 72.4494 39.5574 75.4379 39.0187L75.5949 39.128C75.1504 39.9634 73.2541 41.1662 72.5791 41.8932C71.0526 43.5369 68.5842 47.5668 69.1352 49.7877L69.3593 50.0561C70.2631 50.0851 71.1319 48.3872 71.773 47.6933C73.5506 45.7696 75.2291 44.215 77.7615 43.4001C73.8701 46.8375 75.0713 45.5858 72.5865 50.0598C73.1435 49.5982 73.9078 48.9178 74.5053 48.5531L74.9358 48.8515C72.757 51.3847 71.8611 52.8781 71.1374 56.2173C70.9336 56.9243 70.7673 57.5276 71.1099 58.2271L71.2774 58.1451L71.35 57.7429C72.5582 54.7237 75.0367 52.7029 78.0733 51.6998C75.3005 53.9883 72.736 56.1379 72.4446 60.0352C72.2058 61.1237 72.2018 64.1008 72.5356 65.1718L72.6798 65.1967C72.7976 64.8181 72.8267 64.7346 72.875 64.3445C73.6834 61.8553 74.351 60.7703 76.2641 59.0337C75.8643 60.1801 75.179 61.2281 74.7119 62.4038C73.7995 64.7291 73.8496 67.3218 74.8512 69.61C76.3153 72.9707 78.5521 74.1927 81.7695 75.4402C78.8251 71.6127 77.7564 67.2615 80.2011 62.9059C82.6424 58.5566 85.2172 56.4248 81.0211 51.8935C82.1684 49.7037 83.8286 48.9432 84.2727 46.0242C83.4888 44.068 82.7003 43.7915 81.4963 42.4157C80.728 41.5378 83.4642 39.8907 81.9933 38.0443C79.6024 35.0427 78.4124 36.1041 75.3573 37.1152C75.1643 37.179 74.0035 35.5614 73.7928 35.3813C73.2599 34.6588 72.1867 34.1535 71.3022 34.0183C67.6407 33.4583 64.6735 37.2643 64.0742 40.438C67.2186 41.4049 68.416 42.5573 67.9792 46.0221ZM111.269 30.3256C109.544 29.4684 107.792 28.8154 106.017 29.8855C100.893 32.9761 102.52 36.7532 104.711 40.5967C105.705 38.6531 105.514 39.0513 107.278 37.9735C107.391 37.9041 107.508 36.8589 107.676 36.4703C108.495 34.5746 109.354 33.2616 110.704 31.7401C110.261 33.5225 109.078 36.1829 109.735 38.1591L109.932 38.214C110.358 37.5497 110.286 36.5454 110.55 35.9114C111.534 33.5389 112.623 31.8896 114.601 30.3657L114.778 30.8492C113.583 32.3421 110.917 37.4376 112.54 38.9292C113.892 39.0141 116.196 31.3642 118.552 31.4929L118.607 31.6596L118.45 31.8523C117.39 33.1788 114.743 37.6232 115.878 39.1597C116.665 39.4073 116.922 39.6058 117.581 40.0764C118.242 39.8544 119.701 37.717 120.589 36.9074C120.765 37.3076 120.839 37.3845 120.835 37.8225C120.273 38.8722 118.892 41.117 119.292 42.1781C120.04 44.1601 120.385 43.4934 119.595 45.7116C120.838 44.6517 122.107 43.6287 123.314 42.5201C124.015 41.8767 126.21 38.8884 126.943 38.841C126.626 39.7597 125.653 40.715 125.178 41.5764C123.88 43.9345 121.884 45.5893 120.098 47.55C119.864 47.8079 119.955 47.9654 120.028 48.2443L120.205 48.6504L120.25 48.8697C120.949 49.6832 123.372 47.4083 123.986 46.907L124.273 47.5266C123.421 48.7597 122.548 50.058 121.521 51.1467C120.977 51.7232 120.315 52.2565 119.753 52.8381C121.158 52.3116 125.204 49.3022 125.7 49.2527C125.078 51.5602 119.204 55.2844 117.637 56.946C121.976 55.6963 124.717 53.9603 127.927 50.7476L128.162 51.2281C126.789 53.0472 125.231 55.0085 123.246 56.1941C122.197 57.0582 120.744 57.9317 119.424 58.2711C118.943 58.3584 119.106 58.2345 118.836 58.532L119.085 58.7573C120.797 59.2846 121.219 58.8785 122.805 58.4146C128.644 56.7071 135.456 48.6521 128.583 43.735C126.705 42.4264 127.315 41.7746 128.524 40.0936C130.94 36.7367 131.574 31.7296 126.938 29.9104C125.189 29.2235 123.404 30.2561 121.79 31.0856C119.212 28.7378 120.116 27.0837 115.633 26.5005C113.432 27.4363 112.535 28.4346 111.269 30.3256ZM55.5859 64.4049C54.6499 62.4169 53.082 57.9327 53.6582 55.7485L53.8401 55.6544C54.2057 56.53 54.2637 57.5734 54.5613 58.5084C55.4372 61.2613 56.9013 64.1254 58.6886 66.3867C58.0989 64.651 57.2546 63.0207 56.7958 61.2301C55.6476 56.7497 55.1459 51.3161 57.2698 47.0398C57.4858 46.605 57.585 46.0328 57.9549 45.7347L58.1041 45.8503C58.1149 46.7926 57.7961 47.7993 57.603 48.73C56.4489 54.2918 57.6888 62.0696 61.1998 66.633C61.7671 67.3355 62.2181 67.918 62.8711 68.5451C62.4635 67.4719 61.9547 66.1548 61.4681 65.0945C60.4346 62.8426 59.4324 52.8372 61.3829 51.1717L61.5348 51.2729C61.4801 52.1365 61.312 54.1531 61.3521 54.9662C61.5919 59.8257 63.1977 66.2394 66.4404 69.9996C68.4393 72.3177 71.4706 73.4074 74.2228 74.3705C72.17 72.018 71.0563 69.8486 70.5571 66.7371C70.302 65.3171 70.1655 63.7245 70.2948 62.3024C70.3476 61.7197 70.5497 59.7068 70.1139 59.4346C65.7499 56.7081 70.7925 56.6318 69.0121 51.2314C67.6686 50.1737 66.8507 49.959 65.1486 49.7111C66.5904 45.0908 67.5392 41.3095 61.0143 42.2705C59.8066 40.9267 59.6898 40.6775 57.8184 40.768C54.5207 42.7643 54.2548 44.7107 52.5489 47.9005C51.6548 49.5723 50.4455 50.9544 50.074 52.9192C48.8508 57.7212 51.9693 61.6988 55.5859 64.4049ZM16.7487 112.771C19.2564 114.308 20.8391 114.351 23.6859 113.915C24.1071 113.851 26.844 113.435 26.9587 113.713C25.2619 114.624 23.6429 115.442 22.2599 116.746C20.6453 118.268 18.7444 120.421 19.783 122.757C20.0795 123.424 21.0635 124.097 21.5398 124.657C20.2447 128.161 21.0392 131.371 24.9167 132.401L26.633 131.885C28.6221 134.683 30.8285 135.34 33.9027 133.715C33.628 130.978 32.1648 129.018 32.212 126.344C32.2214 125.809 32.9912 124.327 32.6051 123.838C31.6895 123.049 32.6335 122.674 32.2256 121.961C31.3809 122.121 30.1602 123.977 29.4161 124.263C29.3549 123.864 29.5615 123.553 29.7354 123.168C30.7624 121.44 31.5146 121.037 32.7975 119.606C31.4109 120.243 30.1741 121.186 29.061 122.222C27.6316 123.332 26.612 125.679 25.6182 126.398C25.4636 126.132 25.486 126.218 25.5932 125.799C26.4211 122.559 29.1651 119.453 31.9308 117.724C32.3868 117.425 32.521 117.444 32.7411 117.025C32.2425 116.918 32.2121 117.046 31.6313 117.274C29.6888 117.943 28.2027 118.652 26.5528 119.946C25.8251 120.517 25.1768 121.325 24.3898 121.743L24.2736 121.615C24.6198 120.181 27.787 117.257 29.1961 116.605C29.7871 116.332 31.3918 115.786 31.6942 115.478C31.6087 115.418 31.5331 115.355 31.4272 115.34C28.4786 114.943 25.9436 117.314 23.9018 118.738C24.5482 117.719 25.571 116.177 26.5033 115.406C27.1848 114.842 27.8805 114.514 28.5812 113.843L28.506 113.609L27.9286 113.492C27.8404 112.378 26.7515 112.025 26.4132 111.191C26.1707 110.594 25.9022 109.26 25.7624 108.598C24.7853 108.452 23.5938 109.559 22.6696 108.998L22.7232 108.796C23.312 108.552 23.8963 108.296 24.4758 108.031C25.0202 107.779 25.4755 107.616 25.673 107.076C24.6693 106.316 16.5952 107.946 15.2475 105.719C17.3131 105.276 25.0521 105.216 26.618 103.609L26.5475 103.388C26.1451 103.328 24.784 104.051 23.7161 104.223C20.79 104.694 18.0266 104.736 15.115 105.215L14.8341 104.98L14.8967 104.721C15.4097 104.413 16.7025 104.286 17.3782 104.182C17.661 104.068 18.2139 103.939 18.5414 103.851C19.2825 103.964 20.6013 103.776 21.3739 103.69C20.0125 103.39 18.8617 103.392 17.4825 103.421L17.0469 103.316L16.7938 103.122L16.8166 102.881C17.1247 102.75 24.5271 102.474 26.0456 102.162C24.9966 101.925 22.7258 101.951 22.2248 101.647C22.5877 101.276 23.9385 101.015 24.7139 100.607L24.7405 100.406C24.3565 100.209 21.1703 99.842 19.5521 99.2512C20.8217 99.1229 23.234 98.9421 24.3147 98.4643L24.3554 98.1685L24.1522 98.0628C23.4093 98.2007 21.7146 98.1297 21.1179 97.6764L21.1886 97.4537L21.7411 97.3659C24.3101 96.9778 24.6048 96.9676 26.5446 95.2675C25.6709 94.947 24.8436 94.5119 24.0845 93.9734C23.1642 93.9825 22.289 93.9689 21.3848 93.9323C19.7193 93.8648 17.4075 93.0471 16.1296 94.5251C14.756 96.1138 14.7344 98.1718 15.478 100.021L15.581 100.282L15.6451 100.437C14.1076 100.488 12.9578 100.62 11.823 101.869C11.0517 102.71 10.6591 103.831 10.7367 104.97C10.829 106.244 11.6659 107.429 12.6261 108.217C13.6977 109.096 15.0574 108.833 16.2694 109.527C16.2675 110.148 15.9305 110.265 15.8994 110.482C15.8047 111.141 16.4281 112.224 16.7487 112.771ZM66.083 19.7653C69.2229 22.3322 70.4008 24.7115 70.0137 28.8016L69.8274 29.6298C69.6561 30.1976 69.2152 31.3351 69.3151 31.8679C69.5752 31.3946 70.0132 30.6628 70.1665 30.1739L70.4795 29.1775C72.0531 25.3997 71.7761 22.7453 70.5247 19.0937C72.5624 21.2655 73.1956 23.46 72.8012 26.4778C72.7246 27.0642 72.3722 27.6979 72.5174 28.1602L72.8031 28.0403C75.1467 24.7724 76.3747 21.2364 76.0205 17.1343C75.9177 15.9442 75.4473 14.8643 75.3367 13.6897L75.5204 13.5233C76.6256 14.1863 77.3268 17.3689 77.5444 18.577C77.653 20.0353 77.6361 21.1992 77.2999 22.6439C77.1419 23.3228 76.7617 24.0584 76.7665 24.7066L76.9631 24.7429C77.9422 23.4931 78.2847 20.0434 78.698 18.5115C79.3331 19.5737 78.71 23.3175 78.5145 24.5784C79.8774 23.8365 80.2268 24.169 81.3041 23.6947C82.7284 22.2948 83.4596 18.0274 83.48 15.9631L83.7654 15.971C83.9032 16.2155 84.0092 16.4323 84.1819 16.6529L84.3256 18.3873C84.1043 21.0587 83.6338 22.2799 83.2853 24.6588C84.4897 22.8427 84.1692 22.3048 84.8304 20.8405C85.0072 20.3631 85.1264 19.8169 85.536 19.5697C86.0519 19.9842 85.4378 24.4073 85.4225 25.4114C86.0882 24.3314 86.2166 23.9308 86.6171 22.722C87.0791 23.1413 86.7098 24.9381 87.8521 26.1717C88.4907 25.6625 88.8034 23.1323 89.2664 22.2453C89.7357 21.3465 90.4651 20.4358 90.7178 19.5155C90.326 17.8516 87.0448 18.5143 86.5779 17.3532C86.7355 16.8424 86.9057 16.3357 87.0884 15.8334C86.6268 13.4097 85.3444 10.8902 82.5345 11.4117C81.5882 11.5874 80.2921 12.6078 79.6379 12.5941C78.8805 11.8109 78.9102 7.30831 75.2078 7.35652C73.1474 7.38345 72.5737 7.61888 70.9994 8.86174C69.349 10.1645 68.6034 14.0648 67.5309 14.5767C65.0604 14.215 64.129 12.9928 61.6105 14.8552C60.2445 15.8654 59.5132 17.5157 59.3021 19.1666C59.1987 19.9748 59.1664 20.8406 59.7002 21.5124C61.516 23.7977 66.6577 22.4405 67.7905 28.8821L67.7002 30.3652C67.5147 30.9524 67.4503 31.1076 67.3993 31.7101L67.5371 31.94C67.8512 31.6137 67.8842 31.3231 68.0076 30.8851L68.2944 29.7236C68.9439 24.8851 67.9059 23.6292 66.083 19.7653ZM29.162 104.918C27.4656 107.188 26.713 109.603 29.1075 111.677C30.5417 112.919 32.4704 112.337 34.1091 112.698C35.7389 114.69 34.7555 117.237 38.9852 116.578C40.873 116.283 41.8334 114.454 43.084 114.575C43.614 118.574 43.518 119.469 47.1448 120.941C47.4338 121.058 48.4205 122.336 48.7355 122.585C49.9218 123.587 52.0625 124.194 53.5687 123.881C56.7266 123.226 58.2101 120.408 59.4596 117.787C60.2855 117.709 61.272 117.657 62.0585 117.445C66.7101 115.189 66.0481 110.944 66.6885 106.651C64.1565 110.143 60.2646 113.099 55.7251 112.695L55.4901 112.676C55.1514 112.927 54.4753 113.419 54.1247 113.567C53.2706 113.78 48.8623 114.683 48.2982 114.537C45.3092 113.744 42.3923 112.167 39.5785 110.859C38.0676 110.157 37.1539 107.674 36.185 106.781C33.437 104.247 32.4435 103.644 33.8074 99.7157C32.7345 97.4286 31.9246 96.7932 29.3262 96.8603C25.9705 98.9241 26.9261 102.358 29.162 104.918ZM47.5217 141.218C49.2471 140.699 50.3995 140.399 50.8117 138.511C51.7958 137.736 54.2879 139.878 56.349 138.14C59.8302 135.207 58.2841 130.493 58.2784 126.563C58.2597 125.351 58.422 124.411 58.4798 123.288C57.9366 124.611 57.8516 124.966 57.5171 126.293C57.2727 127.264 57.191 129.871 56.9106 130.255C56.2299 129.724 56.7631 124.696 56.9643 123.646C53.9989 126.157 52.9635 127.455 51.0025 131.005C50.6097 131.716 49.9032 133.799 49.6056 134.07C48.8406 132.508 51.9577 127.136 52.8623 125.847L52.8047 125.685C51.1081 125.607 49.4581 129.293 48.3729 130.317C48.135 129.871 49.7239 126.884 49.9984 126.122L49.911 125.95C49.2342 126.271 48.6063 126.901 48.0502 126.964C47.8499 126.542 47.9094 126.386 48.088 125.892C48.1809 125.642 48.2771 125.393 48.3765 125.146C45.6581 126.32 43.273 127.268 42.2369 130.277C42.0286 130.882 41.7088 132.052 41.265 132.324C40.5093 131.18 42.6182 125.337 43.8784 124.458C44.1518 124.267 44.6335 123.737 44.5489 123.458C42.9885 123.621 40.2311 128.246 39.7146 128.389C39.5232 127.836 40.1109 126.121 40.3951 125.539C41.1761 123.941 42.4236 122.661 43.6123 121.354C43.4413 120.848 43.5855 121.055 43.1495 120.722C41.2825 120.348 39.3322 122.408 37.8218 123.205L37.9716 123.012C39.0276 121.659 41.6649 119.707 41.6899 118.679L41.4635 118.453L40.9728 118.136L40.8532 117.852C40.2172 117.632 37.6473 118.624 37.0365 118.097C36.6758 117.786 37.1969 118.088 36.6471 117.839C34.8969 118.362 33.7666 120.179 34.1813 121.987C34.2875 122.451 34.8956 122.737 35.1212 123.151C34.8827 125.309 32.5158 128.956 35.7119 130.503C35.2534 137.29 38.3471 136.401 43.1658 138.381C44.9943 139.131 44.4237 140.586 47.5217 141.218ZM95.0002 72.4839L95.3503 73.0347C94.7849 73.5982 93.7575 74.9409 93.3335 75.6165C95.6749 73.9852 96.6392 72.3015 98.0388 69.9588C98.2692 69.6113 98.4919 69.2587 98.7064 68.9013C98.7199 71.9391 97.2141 73.0496 95.952 75.1875C98.2669 73.5846 99.5966 71.6621 100.797 69.1363C101.769 67.0906 101.793 66.0507 102.106 63.8585L102.294 63.729C102.912 64.5882 102.452 66.6805 102.326 67.7233C101.957 70.7745 100.258 72.4783 99.0508 74.7694L99.231 74.6131C100.992 73.0739 103.438 69.8185 104.193 67.5943L104.388 67.4951C104.626 67.7975 104.567 67.705 104.503 68.1181C104.17 70.2621 103.186 72.1413 101.919 73.8807C101.773 74.0809 101.817 74.0275 101.785 74.3088C101.875 74.3369 101.965 74.3858 102.059 74.3815C103.234 73.345 104.128 72.2596 105.213 71.1436C104.574 72.5268 104.227 73.474 103.119 74.5441C104.691 74.733 107.132 71.9648 107.862 70.6227C108.829 68.8431 109.653 66.5185 109.178 64.468C108.929 63.3973 107.954 63.1483 107.09 62.7466C105.566 62.0582 107.703 60.0778 107.008 58.5921C106.648 57.8241 106.191 57.5838 105.444 57.2321C102.538 55.8627 102.396 58.1024 100.333 58.9061C99.8058 58.8692 99.2949 58.3167 98.7778 57.9799C96.0379 56.1951 94.1585 61.9997 92.9067 62.2651C92.2802 61.861 91.8481 61.1459 91.022 61.4058C89.3006 61.947 88.277 64.1156 87.4298 65.5811C85.2325 66.3154 83.7112 67.0929 83.2347 69.6308C82.9585 71.1065 83.3138 72.6306 84.2142 73.8319C86.3795 76.7779 90.4205 77.069 93.0331 74.46C93.7333 73.7608 94.1688 73.0571 95.0002 72.4839ZM42.817 212.069C43.3269 213.197 43.7368 213.902 44.3744 214.973C43.5024 214.3 42.9898 213.812 42.3648 212.88C39.2523 207.564 38.8375 203.085 39.9868 197.064C40.3179 195.99 40.4536 195.583 40.5794 194.476C40.1323 195.298 39.9997 195.627 39.6842 196.491C36.5206 204.87 41.2372 211.895 39.402 220.251C39.3287 220.585 38.5973 221.784 38.4009 222.163C38.6658 222.301 38.683 222.334 38.9938 222.201C41.0934 221.296 41.6435 218.4 41.9739 216.456C43.783 218.946 44.6882 221.028 44.1969 224.131C43.8445 226.358 42.8731 227.389 41.0268 228.391L41.0837 228.609C42.1032 228.961 43.9863 228.611 44.9232 228.13C48.0328 226.537 47.7872 223.45 47.3416 220.5C51.5032 223.177 53.1374 228.868 50.855 233.39C50.5541 233.987 49.9221 234.48 49.6831 235.128C50.225 235.256 50.2263 235.136 50.7442 234.867C52.2673 234.072 53.1377 232.52 53.6152 230.929C53.7235 230.568 53.5602 230.745 53.8466 230.425C54.6434 231.092 53.3497 233.484 53.1062 234.427C54.0419 233.298 54.7094 232.587 55.3244 231.249C55.5221 230.254 55.5112 228.913 55.6857 228.362L55.8447 228.404C56.1568 229.417 56.4086 230.185 55.9195 231.184C55.9577 231.476 55.8964 231.346 56.1176 231.564C56.6468 231.123 57.2621 229.232 57.4098 228.515C58.0576 225.376 56.9074 223.71 55.3482 221.299C57.1229 221.117 58.5619 221.355 60.2348 220.524C64.8389 218.237 66.3862 213.771 64.2558 209.151C64.2742 210.808 64.8635 212.034 64.0375 213.63C61.7743 217.999 56.0301 219.792 51.6774 217.456C47.8363 215.396 44.8756 211.371 43.556 207.291C41.3889 200.591 42.6258 194.966 45.7577 188.874C46.069 188.441 46.322 188.014 46.6004 187.559C46.9037 187.016 47.1308 186.919 47.1923 186.373C46.7733 186.563 46.42 187.091 46.1131 187.471L45.7013 188.098C40.9996 194.48 38.6629 204.85 42.817 212.069ZM191.247 47.6034C190.762 47.9905 190.73 47.8816 190.619 48.3534C190.895 48.4025 191.212 48.2228 191.383 48.0116C197.451 44.7398 202.279 42.8941 209.262 44.9806C213.663 46.2954 217.244 48.7129 219.507 52.7475C222.332 57.4849 220.709 65.011 214.901 66.4743C214.174 66.4132 213.863 66.3246 213.198 66.5964L213.197 66.7289C213.579 66.9184 213.65 66.9875 214.077 67.0351C218.469 67.7031 221.745 65.5559 223.102 61.3936C223.578 59.932 223.504 58.5686 223.449 57.0517C223.554 57.162 223.659 57.2713 223.766 57.3795C226.732 60.3837 230.376 61.4176 233.904 58.1887C234.397 57.7381 234.802 57.343 235.312 56.9104L235.578 56.7614C235.558 56.5804 235.536 56.4007 235.509 56.2205C235.803 55.9209 235.68 56.0912 235.782 55.6276L236.311 54.9992L236.391 54.663C236.082 54.503 235.994 54.4449 235.769 54.1814C236.473 53.2739 236.812 52.8071 237.39 51.8207C237.055 52.0529 236.716 52.2798 236.375 52.501C232.633 54.8905 227.48 54.3614 224.276 51.2589C223.861 50.8568 223.399 50.0679 223.083 49.5608C225.359 50.0619 228.093 50.1343 229.603 47.9936C230.855 46.2172 230.499 44.3363 230.199 42.3421C228.397 48.2744 223.187 46.4092 219.193 44.2312C222.659 43.5485 223.403 42.9886 224.645 39.7746C217.89 45.2528 208.471 37.6891 200.599 41.2748C200.06 41.5203 199.745 41.538 199.557 41.9967L199.827 42.0859C205.106 40.6768 213.133 41.574 217.154 45.5515L217.315 45.7122C214.574 44.9692 213.139 43.517 209.432 42.9258C202.3 41.7888 197.089 43.5371 191.247 47.6034ZM87.1653 104.161C87.6455 106.677 88.4446 108.564 90.6674 110.069C93.5571 112.025 97.8854 111.571 99.5805 108.274C99.7889 107.875 100.524 106.33 100.75 106.209C101.791 107.22 101.762 109.705 103.978 109.621C105.267 109.572 106.78 108.112 107.587 107.147C109.44 104.967 110.334 102.131 110.065 99.2822C109.977 98.3745 109.825 97.9408 109.486 97.1026C108.312 98.0971 106.689 99.3911 105.65 100.438C104.948 100.208 105.116 100.138 104.599 100.363C104.05 101.062 104.387 101.572 103.806 102.046C103.521 102.002 103.596 102.068 103.438 101.844C102.743 100.861 101.661 100.38 100.717 99.6578C101.032 101.002 101.207 101.948 101.198 103.347C100.458 101.893 100.082 100.474 99.4288 99.0264C99.4059 99.8175 99.348 102.432 99.1378 103.101L98.5884 102.737L98.3322 102.861C98.2095 103.358 98.2045 103.822 97.9001 104.104C97.1228 103.548 96.6587 100.802 95.6304 100.543L95.4229 100.61C95.296 100.936 95.0836 101.538 94.9171 101.811C94.8373 101.49 94.7465 101.198 94.6515 100.882C94.1673 100.36 93.2438 100.124 92.5317 99.8593C92.4051 100.747 92.3465 101.852 91.8936 102.585L91.6813 102.579C91.1442 101.651 90.9991 99.8117 90.1059 98.0495C89.9474 99.1588 90.2902 101.361 89.8549 101.963L89.5486 101.87C88.6013 100.704 88.3876 97.9959 87.5717 96.1018C87.5964 96.8407 87.6761 99.3904 87.148 99.8518C86.5776 99.1813 86.5889 97.2798 86.22 96.2305L86.0102 96.2415L85.7814 96.7868C85.8888 97.3506 86.0967 97.8468 85.6744 98.2518L85.7012 98.3123L85.6214 98.3149C85.0341 97.1556 85.1714 96.0201 85.1989 94.7324C85.0189 93.4955 84.8401 92.8732 84.2103 91.7327L83.9355 91.5561C82.9036 92.3499 83.2246 95.0434 82.2885 95.0492C81.7058 94.221 82.4223 92.6813 82.562 91.6253C81.7191 92.9951 80.0426 95.3686 80.4829 97.0035C81.083 99.232 83.3937 102.746 85.2548 104.164C85.6554 104.469 86.6345 104.241 87.1653 104.161ZM95.3852 23.731C95.255 25.1628 95.0133 26.6806 94.9079 28.0549C95.2479 27.2789 95.5443 26.6535 95.6998 25.8101C96.3746 24.2593 96.7672 23.1882 97.8101 21.8579C97.3464 23.3457 95.462 30.1787 96.6147 31.3122C96.9761 31.0295 96.8623 30.5305 97.0651 29.9702C99.0321 24.5363 103.212 20.273 108.034 17.4953C108.73 16.9632 109.373 16.47 110.234 16.3037L110.466 16.4295C110.263 17.0354 109.334 17.5969 108.785 17.9954C104.902 21.276 101.142 24.6264 99.2168 29.4711C98.8451 30.4061 97.8826 32.3754 98.3267 33.3054L98.5835 33.3316C99.1522 32.5742 99.8781 30.7119 100.412 29.7822C102.11 26.8239 105.186 23.6973 108.14 22.0158L108.571 22.1983L108.753 22.6541C107.311 23.8859 106.382 24.8113 105.244 26.3537C104.261 27.3128 102.856 28.8988 102.235 30.1171C103.78 29.0101 104.846 27.6101 106.382 26.4804C107.775 25.5479 108.634 24.5496 110.328 23.7158C109.355 24.9537 107.24 26.8258 106.027 27.9778C106.9 27.671 107.852 27.2805 108.723 26.945C109.33 27.4989 109.947 28.0413 110.574 28.5715C111.212 28.048 113.63 25.8423 114.068 25.3014C114.209 24.0071 113.203 24.0243 112.702 23.178C111.917 21.8543 114.106 20.0794 114.306 18.6243C114.668 15.9957 113.201 13.7773 110.547 13.4469C108.235 13.1589 106.267 14.6312 104.539 15.9129C103.878 15.1777 102.821 13.812 101.824 13.8698C95.8864 14.2135 91.0615 21.8101 90.4783 27.244C90.3526 28.415 90.1381 30.9511 90.7153 31.6875C91.2885 31.9992 90.9964 31.9433 91.6144 31.9043C92.2463 31.2733 92.049 29.5447 92.1131 28.6045C92.2754 25.9438 93.1958 23.385 94.7656 21.2302L94.9139 21.2092C94.8654 22.52 92.5197 28.6334 93.9709 29.4889L94.1332 29.3777C94.1862 28.0195 94.3659 24.8448 95.0936 23.7362L95.3852 23.731ZM107.991 92.3997C110.52 93.4548 112.281 92.5686 113.346 89.9958C113.934 88.5885 113.898 86.9983 113.248 85.6187C111.38 81.6062 108.452 82.7934 105.119 83.2707C106.175 83.9634 107.483 85.2052 108.004 86.352L107.951 86.6651L107.698 86.6244L105.902 85.1337C106.766 86.5955 107.013 87.0611 107.384 88.7134C105.182 86.0876 104.396 84.9398 101.023 83.5127C103.211 86.0234 104.208 86.7872 103.702 90.3976C103.042 89.2131 102.331 87.9992 101.471 86.9504C102.018 89.0809 101.939 89.3965 101.701 91.6355C100.818 89.9004 99.2668 84.6707 98.1768 84.3125L98.0788 84.425C98.2292 84.7861 98.7216 85.8113 98.7966 86.101C99.1441 87.4425 99.4938 91.3416 98.3768 92.2703C98.1561 92.0612 98.1911 92.1695 98.1571 91.9348C97.9695 90.6432 96.5516 87.9579 95.7906 86.9149L95.5999 86.8509C95.4366 87.4499 96.3704 90.0207 94.7409 91.4534L94.4946 91.4874C94.1718 88.3901 95.4911 84.1742 92.0927 81.8087C90.3153 80.5714 86.4429 77.6208 84.4595 77.3502C82.2969 83.9221 91.0165 82.6739 93.1339 87.8682C94.6699 91.6361 90.5902 96.3785 94.6216 98.0808C96.7647 98.9857 97.3964 95.0941 98.2941 94.4336C98.7593 94.6677 99.072 95.645 99.425 96.163C101.498 99.2052 105.979 99.0753 107.736 95.7879C108.398 94.5485 108.181 93.7242 107.991 92.3997ZM87.7356 55.7968C88.8006 55.9189 89.6475 56.1931 89.9113 54.8428C89.5312 53.3658 88.0997 52.7459 86.6768 52.7868C86.0403 53.0537 85.7989 53.1088 85.2948 53.5544C84.865 54.6818 85.9171 54.7649 85.1928 55.9903C85.772 56.3443 87.0215 55.9541 87.7356 55.7968ZM91.4507 121.206C92.5327 121.184 93.7586 121.373 94.162 120.144L94.0401 119.922C93.0762 119.868 92.3604 120.328 91.213 120.656C88.5382 121.42 86.4474 119.697 84.4003 118.275C84.3205 118.307 84.2407 118.338 84.1611 118.369C83.812 120.531 90.1043 122.388 91.7747 122.635C92.2395 122.703 92.8085 122.559 93.2562 122.443L93.3392 122.322C92.8493 122.085 92.0591 121.94 91.5135 121.87C91.0735 121.791 90.4663 121.667 90.2044 121.296C90.6452 121.059 90.8572 121.175 91.4507 121.206ZM134.858 55.9012C136.063 54.7095 140.9 49.0755 140.999 47.7552L140.861 47.5995C139.089 49.68 137.735 51.3568 135.633 53.1759C134.621 54.0526 132.668 54.7958 132.333 55.2123C132.615 55.4343 132.45 55.3662 132.834 55.3961L134.858 55.9012ZM73.841 146.242C72.9978 141.725 69.8927 131.464 73.8542 128.022L73.8447 127.866C71.9494 126.933 70.6294 126.228 68.8064 125.153C68.6459 130.587 70.4068 134.835 71.3477 140.115C71.7971 142.637 72.8307 144.101 73.4702 146.512L73.6609 147.667L73.8119 148.225C73.9299 148.766 73.808 148.658 74.1043 148.998C74.2835 148.523 74.2172 148.367 74.1403 147.87L74.0149 147.116L73.841 146.242ZM37.2696 144.734L37.6769 144.506C38.4154 144.184 39.4392 143.245 39.5025 142.416C39.1004 142.422 39.0484 142.61 38.6504 142.965L38.0093 142.529C38.3468 141.712 38.8127 140.758 38.8721 139.896L38.7393 139.698C36.7798 140.597 34.6215 147.142 35.2828 149.228L35.4415 149.374C35.9035 148.749 35.8599 147.279 36.5128 146.419C36.6719 146.209 37.2587 145.081 37.2696 144.734ZM146.524 67.8872C147.055 65.5274 146.891 62.6001 146.792 60.1961C146.78 59.9137 147.072 59.604 147.24 59.4094L146.525 59.2452C145.148 60.5021 145.332 66.7491 146.524 67.8872ZM83.868 163.49C84.8726 163.957 84.8469 164.263 85.8717 163.728C88.0499 161.688 88.8593 159.711 89.8398 156.935L90.1103 155.846C90.3607 154.946 90.372 154.107 90.4357 153.175C90.1884 153.928 89.9296 154.647 89.7699 155.425L89.5211 156.352C88.6698 158.578 87.5982 161.08 85.3711 162.43C84.8934 162.719 84.0794 162.709 83.6497 163.151C83.7819 163.442 83.6931 163.342 83.868 163.49ZM12.8527 121.082C12.3522 121.164 12.1756 121.107 11.8299 121.378C11.8728 121.597 12.3706 122.7 12.5164 123.147C13.5952 123.242 14.7273 122.279 15.7185 122.313C16.4986 122.369 16.9992 122.484 17.7072 122.174L17.6992 122.149L17.8355 121.935C16.8819 121.059 14.7629 120.989 13.4996 121.045C13.2839 121.055 13.0683 121.067 12.8527 121.082ZM88.2764 50.6933C88.7988 50.4591 88.7697 50.4589 89.0724 50.0088C89.2796 48.382 87.4466 47.9897 86.1865 48.0591C85.6575 48.6143 85.2788 48.9355 85.2956 49.7315C85.8716 50.8458 87.1734 50.6784 88.2764 50.6933ZM38.094 151.588C38.9102 149.92 39.174 149.493 40.4533 148.174C41.215 147.388 43.2651 146.484 43.4329 146.16C43.1181 145.865 42.7617 145.869 42.3195 145.797C39.5258 146.52 37.8838 149.179 37.6683 151.94L37.771 152.145C38.0336 151.837 37.966 151.969 38.094 151.588ZM52.5153 112.798C53.1298 112.673 53.5399 112.655 54.0186 112.274C54.6484 111.239 53.9859 110.269 52.9828 110.202C52.003 110.477 50.9931 110.665 50.8656 111.887C51.211 112.647 51.715 112.754 52.5153 112.798ZM39.4608 90.3865C40.0687 88.3943 43.6635 87.6159 43.0928 86.4141C42.5188 86.1908 42.0057 86.256 41.3902 86.3589C41.2541 86.7734 41.3048 86.9027 41.372 87.3204C40.6421 88.1866 39.6033 87.6087 39.0914 88.7382C38.8331 89.3079 38.1938 90.7209 39.0086 91.0435C39.3306 90.8863 39.4492 90.802 39.4608 90.3865ZM152.712 40.8269C152.117 41.8531 151.874 42.731 152.058 43.9546C152.098 43.9769 152.412 44.1547 152.447 44.1643C153.327 43.4732 153.277 42.8485 153.71 41.9421C153.692 41.9537 155.331 39.8583 155.543 39.6298C156.484 38.6184 157.525 38.6217 158.596 37.8639C158.399 37.7855 158.425 37.7663 158.236 37.7868C155.524 38.0803 154.377 38.8342 152.712 40.8269ZM23.5619 134.979C26.2699 135.469 28.7099 136.201 29.7979 139.073C29.9933 139.585 30.0146 139.918 30.3774 140.203C30.8432 139.228 29.7073 137.127 29.1117 136.313C28.0792 135.887 26.9173 135.227 26.1852 134.39C26.1781 134.384 26.171 134.38 26.1641 134.376C25.3026 134.602 24.4349 134.803 23.5619 134.979ZM89.995 42.4003C90.5152 42.5341 90.8647 42.7035 91.3379 42.4972L91.4752 42.2204C91.0583 41.2276 89.5983 40.7308 88.6056 40.6127C87.8656 40.8679 87.3282 41.1114 86.7283 41.6231L86.6944 41.8845C87.3681 42.5301 89.0064 42.3458 89.995 42.4003ZM113.28 124.578C114.615 123.942 118.519 121.461 115.079 119.875C113.947 119.353 112.285 120.312 111.251 120.943C111.611 120.344 112.136 119.496 112.369 118.864C113.013 117.118 113.103 115.194 114.308 113.683C114.598 113.32 115.39 112.59 115.764 112.234C112.374 113.142 110.156 115.651 107.474 117.808C106.716 118.417 103.617 121.004 103.553 121.8L103.825 121.98C104.382 122.171 104.945 121.838 105.692 121.652C103.9 123.575 102.787 123.227 101.328 124.306C100.603 124.596 100.197 124.468 99.3916 124.847L99.4754 124.952C100.618 124.97 100.777 124.932 101.885 124.607L103.175 124.165C105.024 123.607 106.866 122.306 107.756 122.123L107.763 122.283C106.912 123.186 106.395 123.764 105.251 124.324C104.084 125.202 102.262 125.494 101.745 126.027C102.153 126.202 101.939 126.147 102.417 126.09L103.354 126.208C103.143 126.399 103.26 126.318 103.002 126.45L102.914 126.716C102.457 126.378 101.902 126.548 101.303 126.622C101.847 127.048 102.304 126.858 102.914 126.716C103.349 127.124 104.058 127.066 104.648 127.049L104.791 127.044L105.469 126.999C107.016 126.917 111.026 127.625 112.478 128.137C113.648 129.104 114.004 128.675 115.619 130.537C114.936 130.244 114.33 129.783 113.642 129.493C109.826 127.884 105.045 127.611 100.917 127.76C98.8819 127.744 96.9303 127.769 94.8938 127.666C95.923 128.067 96.2397 128.223 97.375 128.167C99.0486 128.444 100.665 128.329 102.354 128.388C106.832 128.544 111.801 129.592 115.358 132.478C116.583 133.472 117.175 134.574 117.719 136.032C119.803 130.785 118.257 127.013 113.28 124.578ZM80.734 88.7334C79.4244 90.5 79.1291 92.7633 79.963 94.8201C80.4451 93.9336 81.0978 90.2841 81.0872 89.1469C81.0854 88.9463 80.9167 88.8794 80.734 88.7334ZM143.224 65.3335C143.225 64.2634 143.64 62.2787 143.525 61.8552C142.817 62.5665 142.759 63.5799 142.827 64.5411C142.58 64.9184 142.281 65.1977 142.431 65.6315C143.097 67.5607 143.871 68.4898 144.201 70.5725L144.384 70.6309C144.986 70.8277 146.435 71.4963 146.767 71.5578C146.653 70.9665 145.405 70.1606 144.807 69.0662C144.1 67.7709 143.836 66.513 143.224 65.3335ZM98.1778 80.8128C106.098 83.1294 114.452 76.8151 120.086 79.222C120.327 79.325 120.344 79.284 120.591 79.2322L120.555 78.9785C119.861 78.2894 118.102 77.2827 117.167 76.952C116.421 76.6914 115.642 76.5338 114.853 76.4838C114.029 76.4352 109.376 76.6765 108.907 77.0543C109.438 77.1909 109.811 77.2115 110.148 77.6233L110.109 77.8515C109.092 78.141 108.394 77.8554 107.457 77.3977C106.114 77.8583 104.638 78.6917 103.287 79.2621C101.489 80.021 100.054 80.3586 98.1778 80.8128ZM73.7901 78.6642L74.4975 78.4761L74.5611 78.2877C73.7788 77.9866 68.1512 78.0267 67.2022 78.182C66.6803 78.234 66.6227 78.1896 66.2338 78.544L66.244 78.7642C66.3673 78.8333 66.4903 78.9025 66.6134 78.9715C69.0028 78.7675 71.3924 78.7103 73.7901 78.6642ZM36.2054 101.833C37.0198 101.238 36.8613 98.1083 36.5401 97.2959L36.1748 97.0625C34.2814 98.8085 35.6988 99.8515 36.2054 101.833ZM83.6687 120.153C83.7654 120.302 83.8647 120.45 83.9668 120.596C85.2984 122.498 87.6936 124.064 89.9788 124.459L91.899 124.608C92.1603 124.071 92.7793 123.829 92.6982 123.15C88.5348 123.497 87.0115 122.552 83.6687 120.153ZM84.2675 109.263C82.2613 108.487 82.9397 107.213 82.0027 105.487C81.1515 103.919 79.3327 102.512 78.6622 100.931C78.231 101.602 77.3815 102.986 76.6243 103.268C75.9767 102.791 76.8589 100.454 76.977 99.6275C77.4961 95.9932 78.0075 90.9626 74.9814 88.2232C73.8783 87.2857 72.9383 87.061 71.6128 86.7174C73.1484 88.284 74.302 89.9965 74.1874 92.1517C73.915 97.2724 69.9219 100.431 72.6166 105.829C72.993 106.583 73.1962 108.253 73.9753 108.91C77.0065 111.363 81.6015 108.595 83.951 113.47C84.2572 114.105 84.3295 115.105 84.5049 115.826C84.8626 113.827 84.924 111.787 84.687 109.771C84.8028 108.981 85.0003 108.261 84.6329 107.546L84.6927 107.724L84.3993 107.886C84.2934 108.438 84.2882 108.695 84.2675 109.263ZM89.3608 125.295C88.1552 125.047 86.4926 124.604 85.3621 124.417C87.0189 125.738 89.124 126.364 91.2334 126.162C91.5841 126.128 91.732 126.101 91.9944 125.88L91.9964 125.604C91.6941 125.402 91.7045 125.428 91.3344 125.425C90.7787 125.473 89.9394 125.354 89.3608 125.295ZM100.7 113.871C103.471 113.161 105.172 112.421 107.337 110.537C107.763 110.085 107.788 110.209 107.818 109.732L107.563 109.728L107.081 110.21C104.968 111.858 102.681 112.177 100.7 113.871ZM19.2167 83.4413L19.192 82.9914L19.438 82.8883C20.0707 83.0352 20.2592 83.037 20.9028 82.9468C21.4877 83.1048 22.0171 83.3286 22.5839 83.1634L22.6598 82.9593C21.8219 81.965 20.179 81.5118 18.8245 80.0925C20.0076 80.3753 22.5101 81.1997 23.5408 80.9625C23.4247 80.5387 20.8166 79.3904 20.1088 78.8941C21.1554 79.0076 24.8391 79.6452 25.5308 79.357C25.5618 79.1421 25.5761 79.013 25.5955 78.79C27.8203 77.7277 29.2992 76.7347 31.8441 76.8963L31.7057 76.7489C28.7325 73.5256 31.1322 71.9409 30.0392 70.5728C28.9273 70.1524 27.092 70.6558 26.0171 71.1372C23.5987 72.2199 22.9202 73.412 22.4368 75.8476C20.0498 75.824 17.547 75.815 15.6929 77.6574C14.822 78.5299 14.3524 79.725 14.3965 80.957C14.4227 81.6642 14.6697 82.2016 14.8065 82.8262C15.5723 86.3207 15.2898 89.8615 18.9975 91.8846C20.0785 92.4744 21.9051 92.9812 23.2301 92.7797L23.4431 92.5649C23.0553 91.8711 21.827 92.0907 21.6005 91.3895C22.1296 91.2135 22.0986 91.3161 22.3838 90.9521C22.1314 90.6618 21.7899 90.6543 21.3923 90.5721C20.8256 90.3954 20.3181 90.3714 20.1943 89.753C20.8037 89.0308 22.2859 89.4145 22.3369 88.4263C21.787 87.9258 19.9942 88.0067 20.084 87.2363C20.5728 87.2482 21.0232 87.2724 21.511 87.3039L21.6392 87.172C20.9849 86.8047 18.2581 85.5338 18.5178 84.8018C19.8862 84.9078 20.5137 85.7399 22.2041 85.7784L22.3011 85.6257C21.7417 85.0209 20.2447 84.3099 19.3483 83.5538L19.2167 83.4413ZM41.7128 148.598C36.6716 153.059 38.0034 160.381 42.1945 164.948C42.6228 165.388 43.0588 165.821 43.5022 166.245C43.9168 166.759 44.3943 167.098 44.9091 167.513L45.0827 167.046C44.6054 166.618 44.3494 166.403 43.8214 166.044C43.4688 165.653 43.0847 165.268 42.716 164.888C39.0267 160.369 37.4488 152.551 43.1674 148.962C43.9589 148.647 46.0575 148.261 46.3604 147.937C45.1074 146.853 42.8595 147.963 41.7128 148.598ZM44.9859 61.3913C44.3873 60.7158 43.305 59.6379 42.3849 59.44C41.6914 59.2908 41.1827 59.9855 40.5303 60.4208C39.7858 60.5624 39.3597 60.0093 39.0227 60.0013C35.8944 59.9273 30.8797 64.24 31.5852 67.5995C31.8606 68.9105 32.9831 70.3111 32.6552 71.2961C31.9313 71.89 31.786 72.1041 31.7775 73.114C31.7446 76.9926 35.963 77.6663 38.9456 77.6362C37.807 76.8448 35.1111 75.159 34.5995 74.0396L34.6919 73.8469C35.0122 73.8906 37.6502 75.5669 38.4267 75.9461C36.7751 73.1433 34.9941 71.2649 34.6252 67.5084C37.0289 71.668 38.4258 74.5374 43.5479 75.7054C42.3785 74.7388 41.8136 74.321 40.9169 73.0952C40.3579 72.4232 40.1989 72.0261 39.83 71.2533C39.4612 70.5927 37.7983 66.6657 37.6483 65.997L37.7335 65.7737C38.3886 66.0951 39.5739 68.3806 40.1274 69.1442C40.9871 70.3299 41.7658 71.3055 42.7838 72.3726C43.2664 72.8848 43.7019 73.1799 44.2612 73.5986C43.8607 72.9371 43.5684 72.5543 43.1032 71.954C41.9965 70.2417 39.902 66.3573 41.2534 64.3992L41.4345 64.4834L41.531 64.9921C41.3982 65.7397 41.3643 66.5726 41.7568 67.2618C42.0157 67.9425 42.4627 69.0185 42.8937 69.61C42.9856 69.088 42.6819 68.4684 42.4848 67.9603L42.754 67.4373C44.1474 70.2161 44.8088 71.6241 47.5379 73.553C48.1929 73.7841 48.8556 74.6172 49.7671 74.8397L49.8858 74.717C49.5302 73.3868 46.5405 72.4471 45.4453 70.0484C44.4628 67.8963 44.2795 63.3547 44.9859 61.3913ZM90.079 139.466C90.2129 139.235 90.3028 139.125 90.4621 138.91C90.7227 139.255 90.9678 139.568 91.1959 139.937C95.6041 148.074 94.6653 162.7 87.8076 169.466C85.4206 171.821 81.0326 173.969 78.3015 170.926C77.6898 170.235 77.3879 169.323 77.4662 168.404C77.5834 166.894 78.7075 165.359 80.3951 165.58C81.6075 165.74 81.7189 166.3 82.3672 167.173L82.6008 167.137C84.0101 164.843 80.2958 162.756 77.5036 164.551C76.5502 165.158 75.8943 166.135 75.6946 167.248C75.243 169.889 77.2674 172.023 79.6255 172.747C82.5105 173.635 85.0721 172.681 87.302 170.897C94.5574 165.095 95.9866 153.601 93.8107 145.083C93.3132 143.138 92.6495 141.117 91.3867 139.524C91.0579 138.994 90.9502 138.864 90.5322 138.396C90.114 138.019 89.3899 137.719 88.8626 137.465C89.0267 137.939 89.2589 138.903 89.6527 139.116C90.5924 141.609 91.452 143.719 91.7539 146.403C92.2444 152.138 91.2048 160.233 86.6772 164.261C85.9538 164.759 85.7752 164.937 84.8854 164.913C85.0676 166.426 84.7121 169.349 83.0724 169.905C81.3088 169.479 81.9028 166.985 80.2159 167.028C79.2486 167.053 78.7546 168.133 78.861 169.025C78.9419 169.695 79.3063 170.299 79.8616 170.683C82.9589 172.843 87.4292 168.553 89.0246 166.117C92.8466 160.284 93.6393 152.904 92.2935 146.196C91.9382 144.087 91.1 141.336 90.079 139.466ZM140.792 33.8231C138.032 33.5489 135.762 32.7739 133.361 31.4301C132.898 31.1708 131.486 30.3634 131.108 30.1995C131.11 30.2472 131.113 30.2948 131.115 30.3426C133.409 34.0636 132.956 36.0927 131.169 40.1414C132.901 39.3633 134.784 38.4873 136.309 37.3422C137.606 36.4765 139.603 34.8859 140.792 33.8231ZM140.773 63.663C141.77 61.4337 143.131 58.3819 145.962 58.0072C146.673 57.913 147.061 58.1198 147.487 57.7578C146.99 56.4946 147.109 54.5425 146.237 53.9227C145.57 52.8937 145.558 51.8605 145.468 50.6631L145.237 50.3815L145.024 50.5095C144.775 51.6278 144.537 56.1867 144.03 56.6412C143.046 54.8031 144.358 49.3985 143.793 48.7852C141.956 52.3473 141.599 52.8666 139.281 56.1598C138.73 56.7924 138.308 57.2893 137.68 57.858C137.545 57.1681 138.004 56.6201 138.387 56.0983C140.922 52.2235 142.687 48.1659 145.433 44.429C145.895 43.7991 147.75 41.7718 147.946 41.285C146.702 41.508 144.737 44.4688 143.933 45.5819C141.478 48.9808 139.347 54.3911 135.599 56.6433L137.23 58.2058C138.426 60.1919 138.349 60.292 137.609 62.4765C138.362 62.8329 139.955 63.364 140.773 63.663ZM37.2768 148.511C37.9563 147.373 38.643 146.505 39.6309 145.61C40.043 145.236 40.6782 144.884 40.7812 144.401C40.471 144.192 40.4296 144.242 40.0404 144.255C38.8825 145.158 37.0404 147.071 36.8965 148.595L37.0302 148.717L37.2768 148.511ZM69.8813 33.3059C70.6686 32.9532 72.0593 32.0111 72.7928 31.5017C75.3977 29.6928 78.1774 28.578 81.3829 28.5433C82.1962 28.5345 84.3283 28.671 84.919 29.2522C84.7298 29.6065 84.2952 29.5768 83.8365 29.4469C81.4761 28.778 74.4674 30.8425 73.4372 33.0854L73.5529 33.2204C74.1101 33.2454 74.6566 32.7555 75.1456 32.467C76.3269 31.77 77.3374 31.4389 78.6843 31.234C79.2494 31.23 80.2218 31.1097 80.5716 31.4165L80.2942 31.651C79.4739 31.8669 78.5181 32.0567 77.8475 32.5753C77.375 32.7604 77.1691 32.7356 76.9624 33.0767C77.505 33.2369 78.9982 33.105 79.6871 33.0801C79.9453 33.4158 79.9837 33.409 80.0698 33.813C79.6324 33.9141 79.4398 33.9847 79.0246 34.1338L78.9846 34.3442C79.551 34.8488 80.8971 35.0873 81.4324 35.4823C82.5163 36.302 83.5052 37.9169 84.9567 38.0918C85.8008 38.1935 86.6326 37.3357 86.629 36.4842C86.3608 35.7071 85.7125 35.242 85.0879 34.6803C85.8047 34.106 86.4396 33.7284 87.2188 33.2463C87.7592 32.1427 88.352 30.9443 88.1752 29.6813C87.7035 26.3107 83.1478 25.2686 80.3077 25.8145C76.1146 26.6204 72.2907 29.9018 69.8813 33.3059ZM66.8495 124.569C66.5563 125.445 66.6371 128.238 67.0117 129.08L67.2684 129.222C67.4873 128.45 67.3541 125.901 67.3208 124.99C67.0873 124.614 67.2425 124.745 66.8495 124.569ZM41.7796 110.939C42.1527 110.674 42.1178 110.676 42.2876 110.242C42.2456 109.504 41.6005 108.986 40.9984 108.638C40.5493 109.165 40.4524 109.102 40.3724 109.671C40.6813 110.279 41.263 110.403 41.7796 110.939ZM96.7883 47.5274L96.5119 47.8641C96.6577 48.6814 98.0536 48.8296 98.7584 48.9365C98.9993 48.3888 98.9733 48.6598 98.8771 48.0985C98.3311 47.5522 97.5476 47.5752 96.7883 47.5274ZM34.8392 102.539C35.0116 103.216 35.0453 103.211 35.423 103.793L35.5498 103.992C35.8502 104.457 35.8906 104.577 36.3563 104.832L36.8401 104.818C36.4648 102.954 36.5254 103.082 34.8392 102.539ZM33.6964 43.6118C32.3393 50.2017 38.5619 52.5369 43.3525 54.2692C44.8447 54.8088 46.6382 56.0055 47.8918 56.9829C47.1118 54.9417 45.5015 51.6741 43.5215 50.6376C41.7053 49.6869 39.82 49.6606 38.1175 48.2502L37.9728 48.128C38.5085 43.528 37.299 43.7056 34.2521 40.6387L34.151 40.4388C33.6177 39.3715 33.5219 37.865 33.2186 37.649C32.8349 38.2887 33.6161 40.7514 33.6638 41.6548C33.6969 42.2808 33.6166 43.0209 33.6964 43.6118ZM36.5805 92.0669C37.2192 91.4896 37.2916 90.6168 37.4863 89.7049C37.4212 89.6349 37.3149 89.5073 37.2428 89.4597C36.5319 90.086 35.2745 91.277 36.5805 92.0669ZM151.732 62.8253C149.745 61.4852 151.558 57.1641 152.291 55.5226C151.308 55.9093 150.377 56.0191 149.335 56.1914C149.024 57.2123 148.829 58.0018 149.027 59.0656C149.808 63.2556 150.458 67.0137 154.739 69.0051C155.661 69.4345 158.467 70.6153 159.371 70.316C159.252 70.0017 157.872 69.0815 157.451 68.6101C154.804 65.6456 153.867 61.522 154.739 57.5797L154.781 57.3964C155.044 56.6292 155.238 56.2613 155.183 55.4499L155.004 55.4845C154.806 55.8379 154.779 55.9956 154.667 56.3829C153.766 58.1328 153.067 59.6909 152.918 61.6892C152.865 62.3913 153.138 63.7293 152.986 64.1104C152.641 63.9733 152.663 63.8359 152.466 63.3694C152.402 63.2169 152.34 63.063 152.282 62.9082C152.191 61.3911 152.427 59.5861 152.534 58.0261C151.603 59.9447 151.766 60.7722 151.732 62.8253ZM25.6111 69.6856C24.5802 68.6595 22.1613 66.373 21.8319 65.0123L21.9839 64.7535C22.4135 64.8552 22.3974 64.8811 22.7563 65.1546L23.1209 65.5416L24.5717 66.8396C24.23 66.2101 24.1039 65.9761 23.6545 65.4255C23.2417 64.8439 22.9669 64.6267 22.9288 63.9814C23.2867 63.5918 23.0799 63.762 23.6979 63.5847C26.6433 66.3873 26.3141 66.7086 29.9161 68.6544C30.0389 63.9925 31.1118 62.2341 34.9191 59.794C31.6452 58.8128 30.7491 59.3159 27.9877 61.0965C25.2283 60.2252 22.258 58.8474 19.4342 60.2835C16.8635 61.5911 17.0223 64.4993 17.3837 66.8766C14.7745 69.4565 14.1952 71.3127 15.9913 74.7859C16.5909 74.5342 17.4157 74.1679 18.0518 74.0262C18.8663 73.8448 20.0034 73.8466 20.7911 73.5799C21.0231 73.5015 21.1934 72.7984 21.2831 72.7322C21.3551 72.6792 21.8662 72.3494 21.9738 72.2789L22.0659 72.0193C21.5992 71.431 20.7688 70.8437 20.1596 70.3645C21.4033 70.5151 22.4209 70.6797 23.6523 70.914C21.5149 69.4164 21.0819 69.3922 19.8618 66.9865C22.3223 68.2192 22.7904 69.031 25.6111 69.6856ZM91.8809 127.358L91.8206 126.997C91.2308 126.795 89.3552 126.646 88.497 126.485C88.7865 127.536 90.9907 127.467 91.8809 127.358ZM38.7757 99.7031C38.3536 100.28 38.1558 100.585 38.2037 101.334C38.2596 102.21 39.366 103.857 40.2024 104.016C40.6504 103.563 40.7097 103.657 40.7771 103.158L40.6682 102.998C39.9225 101.891 39.5856 101.185 39.1957 99.917C38.8964 99.7283 39.0402 99.7914 38.7757 99.7031ZM33.5717 85.4412C34.4239 85.5175 36.8736 85.8096 37.4632 85.1812L37.3605 84.9012L36.757 84.7319C36.5123 84.5409 36.2662 84.3521 36.0185 84.1652L36.0958 83.8712C36.8325 84.0258 40.4047 84.3484 40.7614 83.6454C40.3456 83.2208 37.5536 82.7992 35.7583 81.4409L35.5919 81.3125C39.0064 81.9044 39.6477 83.1941 43.4963 81.9756C42.5778 81.6818 41.7047 81.613 40.9334 81.0262C41.3619 80.698 43.2195 80.9984 43.7972 81.0604C45.5804 81.2517 46.7679 81.2696 48.5165 80.8849C47.4702 80.5798 46.3026 80.1545 45.2516 79.9263C43.9687 79.6479 43.1257 79.5219 41.8576 79.1215C44.4764 78.5742 48.2 78.8144 50.3797 80.4927L51.1779 81.2498C51.5507 81.6093 51.3412 81.5281 51.786 81.5863L51.8462 81.3852L51.5652 80.9291C51.2341 80.6149 51.1866 80.5371 50.7759 80.3223C49.0511 78.5308 46.1739 77.4587 43.7152 77.3217C40.8007 77.1592 39.8972 78.4293 37.4274 79.2588C36.4428 79.5893 34.2477 78.7955 33.2319 78.6731C27.1952 78.2055 21.7999 83.3165 27.2543 88.6814C27.8141 89.2318 29.146 90.0724 29.4589 90.6692L29.4173 90.8893C27.8875 91.1272 25.8292 88.7379 24.6981 88.4085C24.4858 88.4533 24.294 88.4352 24.2243 88.6154C23.2165 91.2261 26.2683 94.0022 28.3395 95.0816C29.5906 95.7336 30.7352 95.8901 31.9845 95.5447C33.6512 94.9435 33.2057 93.5333 34.8777 91.8238C34.8218 91.4606 34.7946 91.4677 34.5929 91.1514C34.7089 90.687 34.6326 90.9052 35.1163 90.5068C34.1561 89.4702 33.9978 90.8127 32.3113 88.4078C32.6265 88.294 33.4013 88.2378 33.7657 88.201C35.2437 87.7875 35.4814 87.7316 36.565 86.654C35.4801 86.2966 34.6004 85.9231 33.5717 85.4412ZM178.643 34.0473C177.41 34.125 175.25 34.6381 175.664 36.3647C176.438 36.6642 177.232 36.4853 178.048 36.5644C180.772 36.8275 182.233 39.4338 183.009 41.7429C183.488 43.7391 183.366 44.9477 183.346 46.974L183.553 46.91C184.321 45.3013 184.306 40.8086 183.882 39.0313C182.773 34.393 180.717 28.8928 185.477 25.4676L185.574 25.2295C185.288 25.0932 185.419 25.1043 185.191 25.127C180.733 25.8145 177.818 28.8433 178.564 33.5825C178.588 33.7377 178.616 33.8926 178.643 34.0473ZM57.7925 68.5832C57.2688 67.8382 55.4456 66.9568 54.5495 66.9595C55.0168 67.7147 56.9214 68.6162 57.7925 68.5832ZM113.774 70.5005C115.556 70.3238 118.211 70.4742 119.717 71.4954L119.884 71.8208L119.712 71.9719C118.351 71.8253 115.024 70.9231 113.757 71.6829C112.489 71.6577 111.565 71.8616 110.385 72.3249L110.344 72.4273C110.929 72.4684 112.17 72.4425 112.722 72.2643C115.074 72.4101 123.479 75.0275 123.349 78.0254C122.99 77.959 122.003 76.866 121.536 76.5197C118.265 74.0934 113.992 73.7994 110.139 74.7669C109.471 74.9346 108.132 75.0776 107.748 75.5955C107.96 75.8036 108.183 75.8579 108.484 75.8601C111.251 75.8805 114.485 75.387 117.202 75.832C119.639 76.276 121.683 77.667 123.061 79.7165C123.611 80.4264 123.957 81.8488 125.016 81.899C125.686 81.9288 126.138 81.259 126.419 80.7424C128.018 77.7985 126.411 75.6382 124.378 73.5401C125.573 72.9482 126.604 72.1047 126.698 70.7131C126.956 66.898 123.164 65.8277 120.367 65.5736C120.804 64.953 121.435 63.9781 121.371 63.2996C120.945 58.817 113.904 60.1969 111.568 62.4566C110.787 63.2118 110.353 63.5739 109.726 64.2501C112.037 63.8918 112.598 63.5709 115.068 63.5851C113.732 64.4111 112.113 65.0595 110.667 65.7669C111.355 65.7707 111.816 65.6981 112.496 65.5895C113.512 66.0017 114.544 65.4442 115.293 66.0854C114.065 66.2366 112.052 66.5449 111.115 67.4354L111.222 67.5823C112.953 67.7656 116.168 67.117 117.956 67.957L118.169 68.2509L118.07 68.3848C115.887 68.3456 112.681 68.3544 110.697 69.3791L110.608 69.6002L110.789 69.7904C111.141 69.7977 111.294 69.7865 111.646 69.7497C112.387 69.7882 113.423 69.6708 113.891 69.9841L113.833 70.238C112.786 70.2996 111.657 70.3667 110.696 70.799L110.601 70.9934C111.273 71.262 113.101 70.7968 113.774 70.5005ZM248.285 66.5143C249.161 66.6227 249.547 66.6979 250.442 66.5289C254.767 66.2773 260.236 65.5901 262.245 61.0982C262.617 60.2651 260.847 58.1638 259.701 59.3541C259.672 60.0385 259.729 60.5511 259.787 61.2284C258.029 64.7477 253.835 65.5336 250.338 66.1167C249.646 66.0544 245.414 65.936 245.059 66.2225C246.191 66.3579 247.147 66.4491 248.285 66.5143ZM99.8409 113.014C99.3463 113.316 99.2201 113.267 99.0573 113.694C99.5983 113.751 99.5917 113.626 100.182 113.318C100.939 112.786 101.343 112.747 101.935 112L101.861 111.792C100.93 111.995 100.562 112.407 99.8409 113.014ZM77.6535 129.542C77.2666 128.155 76.5021 128.195 75.2161 128.232L75.284 128.627C76.1514 129.172 76.7501 129.022 77.6535 129.542ZM88.7 43.5458C85.8405 45.3844 85.882 46.402 89.2973 47.3698C90.4756 46.8647 90.7893 46.5026 91.6121 45.5622C90.8167 44.3585 90.3166 43.4514 88.7 43.5458ZM66.3458 115.124C65.5428 116.543 65.2811 117.115 63.8484 117.872C64.4643 120.146 65.6828 121.689 67.7656 122.795C68.2847 123.07 68.9885 123.377 69.5595 123.189C69.7337 122.394 68.7325 121.71 68.9151 120.894L69.1197 120.778C69.677 121.258 69.9041 121.939 70.322 122.518C72.0287 124.88 75.6856 126.845 78.4601 125.155C79.7755 124.354 80.2336 123.459 80.5302 122.008C80.7783 120.795 81.6406 120.037 82.1304 118.932C82.7423 117.657 83.0546 116.17 82.5121 114.788C81.1311 111.269 76.2137 112.952 73.4833 111.395C71.8627 110.47 71.4312 109.565 70.8935 107.949L71.3645 106.439C67.2552 99.0795 72.0988 98.2903 72.5513 91.8219C72.5019 90.4751 71.4911 88.0622 70.3741 87.3222C67.2544 85.2555 65.7668 86.6228 63.9761 89.0867C66.7803 88.2329 68.456 88.367 71.0944 89.5641C69.7192 89.7807 66.1221 89.6137 64.9829 90.2422C65.4035 90.7754 67.6134 90.9349 68.425 91.0515C67.5528 91.2504 65.9297 91.5034 65.3426 92.1446C65.4193 93.081 67.9473 93.8728 68.5703 94.71C68.2486 94.8408 68.2592 94.8465 67.9896 95.0715C67.976 95.5075 68.1888 95.9147 68.3723 96.3304C69.3103 98.4568 68.9316 101.453 69.3603 103.781C69.5888 105.022 70.4592 105.825 70.4299 106.987C69.935 107.32 69.9903 106.701 69.3021 106.858C69.2649 107.066 69.2346 107.275 69.2116 107.485C68.9165 110.366 71.3081 113.869 73.0621 115.969C70.5832 114.627 69.9581 113.625 68.7008 111.19C69.3384 117.02 72.4719 117.838 76.288 121.217L76.4194 121.335C73.5418 120.722 70.9493 119.499 68.8411 117.408C68.6177 116.914 68.7938 117.052 68.4037 116.851L68.2506 117.046C68.2854 117.326 68.2748 117.426 68.3691 117.686C68.8451 118.644 69.1495 119.288 69.522 120.285C67.7018 118.689 67.0488 117.37 66.3458 115.124ZM46.2725 84.4415C45.6147 84.5092 45.3596 84.4638 44.8854 84.868L44.9113 85.0733C45.3804 85.2938 45.5972 85.219 46.1129 85.1628C46.6126 85.0534 46.8015 85.0619 47.1568 84.6943L47.1542 84.4759C46.7855 84.3058 46.68 84.3727 46.2725 84.4415ZM45.9379 111.589C45.9321 110.573 45.5892 110.147 44.6015 109.795C44.6193 110.79 44.7487 111.572 45.9379 111.589ZM111.669 40.3632C109.824 39.0672 107.297 38.2565 105.751 40.7464C104.729 42.3915 106.161 46.0929 106.685 47.9624C105.57 46.6076 103.591 41.8664 101.641 44.2515C99.7124 46.6112 101.19 49.384 101.788 51.9413C102.035 52.9959 102.168 53.8254 102.28 54.9033C103.874 54.7309 105.379 55.2534 106.852 55.8327C107.183 56.2879 107.558 56.9865 107.849 57.4891C109.492 52.7697 110.134 51.5488 109.44 46.5917C109.476 46.1684 109.557 46.0806 109.745 45.7008C111.361 49.2184 111.315 52.9923 109.973 56.5814C109.838 56.9408 109.701 57.299 109.56 57.656C112.007 55.1201 112.55 51.4677 112.723 48.0957C112.739 47.7563 112.688 47.2103 112.865 47.0346L113.301 47.8066C113.953 51.7389 113.133 55.5288 110.83 58.8203C110.221 59.6913 109.404 60.43 108.799 61.2487C110.921 60.1545 111.67 58.9239 113.075 57.0313C114.313 54.8079 114.516 53.2183 115.376 51.6081C115.214 54.0029 114.908 56.235 113.673 58.3399C113.237 59.182 112.899 59.1348 112.385 59.9719L112.511 60.0934C113.07 60.0379 113.594 59.5619 114.012 59.2083C117.599 56.1698 121.464 50.8924 117.531 46.5133L118.353 45.0746C118.31 41.0327 115.38 39.5841 111.669 40.3632ZM64.1026 246.977C64.1206 246.715 64.0782 246.071 64.0661 245.778L63.9807 244.836L63.908 244.212C63.6277 244.757 63.6448 244.804 63.6215 245.434L63.6894 246.805L63.6308 247L63.6744 248.248C63.6111 248.803 63.5242 249.428 63.4918 249.979C63.0463 253.016 62.1897 256.624 59.834 258.782C59.3537 259.364 56.2294 259.776 56.2273 260.454C56.2214 262.579 58.2875 263.261 59.8169 261.679C61.9986 259.423 63.958 254.39 63.9599 251.286C64.1427 250.319 64.1264 247.992 64.1026 246.977ZM56.3026 177.576C46.878 185.232 39.3534 201.437 48.2206 212.229C50.1641 214.589 52.5681 216.36 55.6748 216.673C59.0423 217.012 62.381 214.87 62.64 211.342C62.7904 209.295 61.766 208.581 60.4504 207.301C60.9877 205.812 62.4151 206.277 63.5959 206.77C66.806 208.106 67.6693 211.801 66.9544 214.92C66.82 215.383 66.7262 215.804 66.4948 216.227C66.1026 216.742 65.2048 218.153 64.9294 218.726L65.0642 218.853C65.5585 218.547 66.7071 216.947 66.8779 216.45L67.1788 215.496C69.618 209.143 64.1359 201.211 57.0516 205.131C54.2646 206.671 55.7222 209.48 54.2306 210.43C53.332 210.46 52.2091 210.065 51.559 209.461C42.4363 200.99 50.5764 185.552 56.5547 178.136C57.4066 177.266 58.1338 176.552 58.869 175.569C57.8437 176.212 57.1288 176.654 56.3026 177.576ZM84.2202 130.559C92.2243 138.693 95.6081 135.79 103.585 140.069C107.44 142.32 106.524 142.036 109.006 145.093C108.009 141.098 105.942 138.958 102.586 136.81C96.345 132.816 88.762 133.75 84.2267 127.439C83.3642 126.239 82.5709 124.972 82.1978 123.534C82.1355 123.292 82.0777 123.048 82.0246 122.803L81.7588 122.543C81.5924 125.112 80.696 126.426 78.4363 127.754C80.4722 131.56 82.4545 133.395 82.1595 137.961C84.2946 135.54 84.0583 133.681 84.2202 130.559ZM39.6044 106.843C39.7855 106.38 39.9134 106.19 39.8268 105.701C39.4381 105.219 39.5726 105.371 38.9171 105.127C38.663 105.791 38.6914 105.464 38.7922 106.141C39.1208 106.607 39.0956 106.588 39.6044 106.843ZM18.7145 128.935C16.4818 128.905 15.1063 128.875 12.9812 128.102C12.5081 127.93 11.008 127.293 10.6554 127.228C12.1289 132.227 14.1354 132.213 18.467 133.207C16.9158 134.089 15.5468 135.401 15.0565 137.203C14.8249 138.056 14.8369 139.578 15.4381 140.284C15.816 139.85 15.7492 138.863 16.3172 137.89C17.649 136.049 19.0792 134.655 21.4686 134.293C21.855 134.238 22.2429 134.195 22.632 134.161C20.7257 133.103 19.5477 132.046 18.9241 129.81C18.8456 129.521 18.7757 129.229 18.7145 128.935ZM38.6688 107.923C38.6747 108.787 39.0083 109.016 39.6741 109.481C39.6125 108.664 39.4857 108.276 38.6688 107.923ZM155.346 74.8135C153.563 74.6824 151.008 74.2286 149.499 73.2666C147.158 71.774 147.149 72.3288 144.67 71.9655C144.277 72.3159 144.272 72.7961 144.458 73.2847C146.53 74.4802 152.877 75.0973 155.376 75.29C155.747 75.2315 155.784 75.2107 156.138 75.0739L156.048 74.927L155.346 74.8135ZM42.8459 105.679C42.3554 106.661 42.5215 107.867 43.4849 108.665C43.6168 108.774 44.1406 108.745 44.3482 108.75C44.4528 107.877 44.2648 107.891 43.5371 107.417C43.481 107.001 43.569 106.831 43.6918 106.434C43.4656 105.978 43.4213 105.919 42.8459 105.679ZM64.4327 72.5217C63.9076 72.3479 63.554 72.1641 63.0201 72.267L63.0093 72.4519C63.5249 72.8786 63.9992 72.8741 64.6753 72.9815C65.0717 73.1666 65.1387 73.1666 65.5735 73.2587L65.6804 73.1134C65.3666 72.7158 64.9408 72.6704 64.4327 72.5217ZM98.8104 45.8651C99.0648 44.8153 99.372 43.661 99.5313 42.6032C98.7043 41.0298 98.291 40.8268 96.7812 39.8883C96.7606 39.8754 96.7179 39.2317 96.7134 39.1545C95.6534 38.2525 94.5061 38.3828 93.1414 37.6012C96.3769 37.7256 97.0431 37.7266 99.8278 39.4384C100.282 39.8567 100.802 40.4395 101.371 40.5879L101.456 40.4253C101.107 39.8383 100.714 39.641 100.151 39.2501L100.008 39.1098C98.8961 38.0393 97.4154 37.0856 95.8604 36.8046C95.0666 36.6611 93.6829 36.7849 93.0154 36.4048L93.0298 36.1698C93.8914 35.5413 95.5291 35.4032 96.5592 35.5787C99.1123 36.0138 100.161 37.5185 101.797 39.0786C99.951 35.4746 95.3592 32.1536 91.1227 34.2184C87.9856 35.7472 88.641 39.1888 92.1005 39.6545C93.3719 39.875 93.8462 39.8815 95.094 39.8266C94.653 41.2354 94.2012 42.6604 93.9903 44.1259C94.9427 44.6299 95.9369 45.1921 96.9794 45.4696C97.6166 45.6391 98.1869 45.6482 98.8104 45.8651ZM67.0075 81.6126C66.6933 82.4944 66.3238 83.4152 66.1476 84.3271L66.3183 84.6158C71.9424 83.184 69.3833 83.9493 73.4663 80.8701C73.3832 80.6657 73.4516 80.7181 73.322 80.656C70.9515 80.9948 69.3276 80.8448 67.0075 81.6126ZM78.6441 82.8421C78.9468 82.0067 79.5326 80.518 79.7233 79.7103C79.5521 79.522 79.6396 79.5666 79.5031 79.5142C78.0929 80.8345 75.2982 83.1663 75.0701 85.0798C75.2656 86.034 76.7875 86.6382 77.7476 87.799C78.1463 88.3025 78.122 88.4601 78.6121 88.5967C78.8572 88.3348 79.2471 86.5988 79.5528 85.863C79.3246 84.6064 79.272 83.9629 78.6441 82.8421ZM38.2137 97.0322C39.1544 95.7345 40.5616 93.1755 38.2017 92.5268C36.7082 93.7551 36.5119 96.6904 38.2137 97.0322ZM84.9395 136.236C84.3219 137.548 82.273 140.683 80.6323 140.489C79.646 139.814 80.3433 138.643 80.4399 137.699C80.9317 132.883 78.2759 131.196 74.5554 129.495C72.9599 132.79 73.7452 136.55 74.4911 140.072C74.5172 140.195 74.6102 140.368 74.6721 140.493C74.9006 140.499 75.1111 140.522 75.3335 140.574C76.2135 142.22 76.4184 145.084 78.4809 145.673C80.8463 146.35 83.2006 144.234 84.3057 142.44C85.358 140.09 84.9632 138.766 84.9395 136.236ZM50.7263 63.2283C51.2202 63.7277 52.1316 64.9324 52.805 65.0045C52.3205 64.2403 51.4758 63.4367 50.8288 62.7689C50.4629 62.1917 49.882 61.0982 49.3242 60.8398C49.354 61.6439 50.2192 62.5916 50.7263 63.2283ZM146.305 49.6727C146.485 49.2559 146.631 49.0588 146.515 48.6284L146.321 48.5351C145.992 48.9607 145.979 49.1715 146.134 49.7233L146.305 49.6727ZM108.53 36.1836C108.364 36.8072 108.273 37.1225 108.716 37.6696C108.786 37.1118 108.928 36.6379 108.53 36.1836ZM150.999 41.3913C151.711 40.6077 152.123 39.6628 152.919 38.8646C153.607 38.1759 154.418 37.9475 154.984 37.2665L154.93 37.0942L154.612 37.0816C153.463 37.683 150.99 38.8945 150.298 39.9821C150.293 40.3955 150.743 40.9696 150.999 41.3913ZM35.5845 170.415C34.0074 171.354 33.302 171.905 32.8743 173.77C31.7352 173.638 30.7816 173.465 29.644 173.742C26.3193 174.551 24.8995 177.414 24.5042 180.546C30.5388 174.314 36.1537 180.365 43.6133 179.688C44.4897 179.557 46.4744 179.273 47.1881 178.795C46.3242 178.747 43.6831 179.04 42.5249 179.082C38.32 177.669 34.3853 175.867 35.5845 170.415ZM90.6856 152.998C90.7482 152.468 90.8886 151.862 90.7563 151.385L90.6765 151.309C90.5135 151.898 90.36 152.211 90.4806 152.787L90.6856 152.998ZM83.4558 62.3212C83.0999 62.7523 83.0336 62.6741 83.0587 63.0893L83.3621 63.2618L83.8042 62.7246L83.7629 62.4698L83.4558 62.3212ZM83.4095 65.6095C83.9035 65.1558 85.8241 63.7061 86.0225 63.4076C88.0931 60.2913 87.1583 60.1761 90.97 59.3223C91.9256 57.3119 85.8157 57.043 84.9993 58.781C85.1118 59.1998 85.277 59.176 85.7537 59.4972C86.0614 60.5708 84.7119 60.4683 84.3613 61.8029C84.8113 61.8841 85.2027 61.9073 85.5774 62.1563C84.5883 63.2865 84.0723 64.2721 83.4095 65.6095ZM143.919 61.2993C143.974 62.2613 143.971 63.3172 144.272 64.2209C144.53 63.8611 144.66 61.5167 145.083 60.296L144.915 60.0326C144.401 60.5534 144.278 60.6686 143.919 61.2993ZM74.4662 83.2063C73.9997 83.5463 72.9018 84.2993 72.6589 84.7655L72.6862 85.103C73.5742 84.677 73.943 84.3692 74.4423 83.5238L74.4662 83.2063ZM136.733 23.2507C136.066 21.9659 135.416 20.6797 134.971 19.2979C134.079 16.5284 133.998 10.5623 130.025 10.4163C129.416 10.7336 129.44 10.598 129.175 11.0961C129.432 12.0718 129.937 12.5993 129.397 13.6141C128.647 15.0219 128.181 15.9488 128.886 17.5148C129.976 20.5862 132.291 23.4265 134.944 25.318C135.077 25.4131 135.141 25.3552 135.298 25.3155C134.974 23.9915 134.877 23.3732 134.725 22.0251C135.374 22.422 136.082 22.8757 136.733 23.2507ZM66.9668 75.2868L66.9536 74.9935C66.3704 74.825 65.4538 74.8862 64.8461 74.9541L64.9467 75.2242C65.6152 75.4309 66.2808 75.4403 66.9668 75.2868ZM63.1966 193.159C65.5635 192.315 67.1342 191.279 68.2976 188.882C68.6219 188.214 69.2054 186.405 69.0563 185.712L68.867 185.562C66.5597 188.28 64.0092 188.691 60.8898 189.932C59.6326 190.433 56.488 192.273 55.234 192.99C52.4847 194.56 51.4482 201.811 52.6171 204.437L52.7637 204.482C53.0061 203.51 52.9011 203.002 53.0074 202.103C53.1483 200.91 54.0613 199.157 54.7576 198.181C57.4386 195.145 61.9431 193.611 65.3656 196.603C66.2419 197.368 66.6211 198.55 67.108 199.598L67.3252 199.506C67.6489 198.63 67.4267 197.214 67.0381 196.374C66.2692 194.712 64.7377 193.93 63.1966 193.159ZM48.9383 112.411C49.1613 112.311 49.31 112.095 49.3239 111.851C49.3378 111.606 49.2145 111.375 49.0043 111.25C48.7941 111.125 48.5319 111.128 48.3243 111.257C48.0316 111.439 47.9301 111.817 48.092 112.121C48.254 112.425 48.624 112.552 48.9383 112.411ZM172.321 44.7834C169.979 41.739 167.141 39.4846 163.232 38.959C158.703 38.3503 154.567 40.2362 153.649 45.0733C153.56 45.538 153.718 45.9578 153.888 46.3778L154.124 46.5808C154.422 46.2613 154.442 45.7451 154.507 45.2923C154.753 43.5707 155.755 42.1061 157.177 41.1216C162.007 37.7779 168.824 40.7143 171.98 45.0332C172.376 45.4096 172.37 45.5421 172.803 45.5962C172.724 45.1286 172.68 45.2091 172.321 44.7834ZM210.602 55.7123C209.573 55.5896 208.251 55.383 207.252 55.4654C203.586 56.2263 199.567 59.4672 200.366 63.5881C200.579 64.6593 201.242 65.5871 202.187 66.1348C202.677 66.4238 203.224 66.5997 203.77 66.7438C204.601 66.7962 205.335 66.9262 206.021 66.4384C206.386 65.7523 205.711 64.2657 205.697 63.4381C205.622 59.4733 206.974 57.0311 210.602 55.7123ZM75.1871 146.37C76.3281 151.188 79.7705 148.433 80.3238 149.901C79.8961 151.484 78.2841 152.144 77.9957 155.088C77.9849 156.89 78.1244 157.375 78.7864 159.085C80.1866 154.867 83.4192 153.016 86.0403 149.558C86.932 148.382 85.6175 148.025 86.6469 147.094C87.0516 147.13 87.1383 147.201 87.5064 147.367C89.7451 146.429 88.182 137.208 85.9976 135.771C85.9646 137.849 87.1496 138.799 86.3649 141.444C84.7997 146.72 80.2421 149.367 75.1871 146.37ZM19.418 125.29C18.1928 123.924 17.9096 122.965 15.8495 123.405C14.63 123.681 13.6149 124.035 12.4297 124.348C11.8857 124.492 11.8014 123.837 11.2848 124.268C11.3109 125.73 13.933 126.385 15.0606 126.73C16.5557 127.005 17.3587 127.138 18.873 127.177L19.418 125.29ZM55.5735 235.601C45.7563 243.98 44.6393 234.001 39.1176 234.273C37.3116 235.501 38.0057 237.547 39.0901 239.025C40.3411 240.709 42.2271 241.81 44.3096 242.069C47.5913 242.471 51.2119 240.689 53.4706 238.391C54.4472 237.31 54.9044 236.887 55.5735 235.601ZM236.708 58.7147C237.193 58.378 237.993 57.8585 238.42 57.4916C241.199 55.0835 243.375 52.004 243.691 48.2506C244.021 44.3349 241.364 39.9762 237.022 40.4864C232.39 43.711 241.412 46.4787 240.298 51.5715C239.412 55.6163 239.21 55.509 236.708 58.7147ZM35.2976 94.2891C34.9301 94.7228 34.6884 94.8534 34.6052 95.3294C34.9896 95.6282 34.7701 95.5189 35.3241 95.5765C35.6855 95.2613 35.9481 95.1102 36.0632 94.6528C35.8126 94.2905 35.8735 94.4053 35.2976 94.2891ZM56.4825 148.167C56.2947 148.298 56.0963 148.417 55.9013 148.54C56.268 149.048 58.0294 148.38 58.7245 148.409C63.3738 148.61 66.8054 150.23 69.1854 154.099C68.333 145.995 63.5151 142.559 55.5031 143.004C55.1881 144.747 55.1005 144.903 54.0607 146.339C58.4539 144.541 59.6561 144.134 63.8209 146.882C60.5248 146.13 59.608 145.94 56.6202 147.632L56.4825 148.167ZM84.2183 42.2697C84.2115 43.0115 84.2553 43.5584 84.9816 43.9517C85.0721 43.4094 85.1814 43.1275 84.962 42.6287C84.6403 42.3343 84.6512 42.364 84.2183 42.2697ZM95.2517 52.4047C96.2875 53.4672 96.4095 53.5095 97.8547 53.8755C98.467 54.1105 98.9821 54.4037 99.5953 54.2834C100.96 53.4394 99.774 50.9343 98.7354 50.5389L98.3778 50.595C97.6606 50.7362 96.9544 50.8962 96.227 50.9572C95.9136 51.4208 95.5454 51.9374 95.2517 52.4047ZM146.434 14.9899C143.17 14.1077 141.996 15.7966 140.285 18.2459C139.46 13.7137 138.665 11.5109 133.659 10.4977C136.254 13.4228 135.849 16.9515 136.766 20.5671C137.156 22.0963 138.033 23.1282 137.582 24.6132C138.856 28.2963 142.137 29.5936 145.639 30.5302C146.166 30.6711 147.542 30.7722 147.979 30.4824L147.935 30.2557C147.308 29.9906 146.69 29.989 146.063 29.6858C139.784 26.6472 139.144 18.7418 145.91 15.6882C146.495 15.7267 146.835 15.8124 147.287 15.4942C147.013 15.1093 146.962 15.1929 146.434 14.9899ZM133.358 47.102C133.546 48.31 133.772 49.5332 133.648 50.7786C133.542 51.8268 132.426 52.978 132.604 53.7217C136.439 50.9708 138.054 48.323 141.214 45.0672L141.146 44.8916L140.949 44.8211C139.099 46.0583 135.584 46.8828 133.358 47.102ZM104.262 117.968C107.506 115.585 110.714 111.756 111.141 107.689C111.209 107.038 111.515 106.097 111.155 105.592C108.635 110.027 106.444 115.149 100.715 115.554L103.087 116.473C103.716 116.872 103.886 117.316 104.262 117.968ZM176.729 57.4814C178.316 52.765 175.962 45.8561 173.877 41.5273C171.404 36.3938 167.44 32.4253 161.994 30.5328C157.381 28.9299 152.516 29.8959 148.642 26.5328C148.455 26.3703 148.405 26.3647 148.174 26.3052C148.526 27.3319 148.742 27.8771 149.267 28.809C149.818 29.7863 151.69 31.0871 151.903 31.7997C151.51 32.3227 149.137 32.4718 148.312 32.6873C143.042 34.0638 139.138 38.1652 134.479 40.7569C133.393 41.3612 130.642 41.8691 130.098 42.8847C131.547 45.14 139.911 40.6114 141.481 39.5531C146.511 36.161 151.462 32.7979 157.813 34.5106C160.47 35.1434 163.041 35.9945 165.45 37.3305C170.971 40.3316 174.133 43.9551 175.988 50.0524C176.731 52.4955 176.722 54.9485 176.729 57.4814ZM183.491 56.9155C188.431 52.7735 196.06 49.0719 202.772 49.0195C206.405 48.9911 212.863 51.3691 213.142 55.9551C213.229 57.3546 210.353 56.9055 209.414 57.8913C205.286 62.2228 207.805 69.3723 213.972 69.6917C214.952 69.7434 217.704 69.5003 218.402 68.8858C217.959 68.7293 216.363 68.9771 215.739 68.9475C211.535 68.7471 208.523 66.4814 209.903 62.0395C211.982 65.0747 214.572 65.903 217.415 62.9275C221.228 58.9335 218.349 52.9632 214.791 49.893C211.674 47.1207 206.763 45.5448 202.584 45.869C194.758 46.476 187.898 50.9602 182.832 56.6737C182.344 57.1908 181.926 57.5386 181.675 58.1955C182.205 58.2364 183.086 57.2952 183.491 56.9155ZM96.4048 132.454C98.6055 133.478 100.551 133.982 102.72 135.226C104.456 136.222 105.342 137.219 106.776 138.204C106.269 136.34 103.309 133.967 101.635 133.009C99.3335 131.691 98.107 131.691 95.768 130.967C95.9044 131.493 96.1648 131.965 96.4048 132.454ZM66.7165 140.273C65.3763 139.443 63.2422 138.566 61.6657 138.745C59.8218 139.301 58.2778 140.248 56.4228 140.752C55.5552 140.988 54.4295 140.758 53.7319 141.043L53.7806 141.285C54.8523 141.68 57.0715 141.173 58.2117 140.951C61.6722 140.658 63.3489 141.366 66.7165 140.273ZM92.3962 47.7893C91.6954 48.0058 90.9525 48.128 90.5956 48.785C90.3751 49.1818 90.34 49.6551 90.4996 50.0799C90.8665 51.0463 92.0203 51.4648 92.9675 51.5464C96.1543 50.1698 94.9919 47.7665 92.3962 47.7893ZM93.4591 54.2194C92.1745 54.7449 91.9819 55.0255 91.1484 56.144C92.1502 57.0588 92.7227 57.7047 93.6318 58.5931C93.6901 58.5818 93.9228 58.5456 93.9622 58.5183C94.6895 57.4819 96.1269 56.8749 96.2455 55.8403C95.9258 54.6261 94.5998 54.1774 93.4591 54.2194ZM84.8057 125.523C84.8256 126.312 85.8838 127.309 86.4591 127.879C88.8717 130.265 91.7007 131.422 94.9627 132.237C94.3158 130.229 91.9657 131.725 91.4523 128.741C90.6021 128.311 89.845 128.501 88.6174 127.876C87.8552 127.489 85.1278 125.599 84.8057 125.523ZM226.832 61.9009C227.169 62.5811 227.444 63.5089 227.334 64.272L227.175 64.4928C226.745 64.2505 226.423 63.6393 226.266 63.1838L226.106 62.9987L225.919 63.2072C225.772 64.9114 228.122 66.9762 229.742 66.1693C231.019 65.5337 232.061 63.9194 231.285 62.5142C230.608 61.2888 227.744 61.2841 226.832 61.9009ZM61.9692 224.344C61.5544 224.833 61.7617 224.774 61.0999 224.826C59.0868 224.981 58.5474 225.903 58.9431 227.819C59.2153 229.136 59.7522 229.207 60.9147 229.371C65.3184 228.803 63.8032 223.867 61.9692 224.344ZM66.3415 134.322C64.613 135.75 63.8149 136.159 61.7885 137.176C64.7458 137.331 66.4273 137.561 68.8501 139.455C69.3678 139.867 70.5687 141.052 70.9431 141.243C71.0351 140.956 68.7238 135.919 68.2786 135.366C67.6443 134.58 67.3383 134.319 66.3415 134.322ZM51.6341 141.989C49.1912 142.652 44.287 144.046 48.456 146.975C49.438 147.176 50.1348 147.2 51.0218 146.632C51.9137 146.053 52.5338 145.138 52.7419 144.095C52.9097 143.277 52.6937 141.974 51.6341 141.989ZM98.0949 117.226C97.0482 117.871 96.2032 118.242 95.9035 119.511C95.7626 120.084 95.8685 120.69 96.1951 121.181C96.9738 122.336 98.4914 122.335 99.7129 122.098C103.992 120.31 101.952 116.889 98.0949 117.226ZM150.608 47.6576C147.727 48.9206 146.871 53.9492 151.341 53.3708C152.32 53.002 153.104 52.2478 153.513 51.2842C153.801 50.6102 153.883 49.8026 153.595 49.1139C153.343 48.5139 152.848 48.0488 152.234 47.8335C151.804 47.6878 151.076 47.6754 150.608 47.6576ZM152.328 35.8399C148.516 36.4649 147.03 37.9701 143.957 40.0342C142.738 40.8527 140.013 41.992 138.73 42.7202C137.761 43.2699 133.171 44.7795 132.701 45.2016C133.161 45.9494 136.268 45.0553 137.081 44.8105C139.015 44.2153 139.691 44.0004 141.437 43.0835C143.247 42.1331 146.34 37.9565 148.164 38.6322C148.619 39.2086 148.643 39.924 148.736 40.6655C151.025 37.2608 152.278 36.887 155.988 36.0104L155.905 35.8125C155.123 35.5788 153.207 35.7836 152.328 35.8399ZM17.7823 117.009C18.5716 117.417 18.6903 117.57 19.5234 117.317C19.1917 116.665 14.1641 114.737 13.1588 114.376C7.6382 112.4 -0.676083 117.563 2.62189 123.836C3.97001 126.399 8.27628 126.45 8.83849 123.09C8.98299 122.166 9.68174 121.078 9.01195 120.255L8.66692 120.233C8.05114 121.017 8.13946 125.013 4.8771 123.286C1.12652 121.3 3.76933 116.114 7.25075 115.14C11.1182 114.058 14.276 115.318 17.7823 117.009ZM85.9879 107.798C86.5521 111.614 86.3406 112.612 85.6341 116.212C88.2904 118.735 88.7956 118.432 91.2923 116.043C91.6923 115.692 93.9968 113.803 94.0359 113.566C93.726 113.518 93.7105 113.521 93.3939 113.602C89.9057 114.491 86.8661 108.226 85.9879 107.798ZM11.4001 120.141C12.1045 120.085 12.6991 120.087 13.5082 120.047C14.2066 120.012 17.3419 120.439 17.7437 120.211C17.9041 120.12 18.5339 118.599 18.7631 118.255L17.1523 117.882C12.9813 116.067 7.17647 113.794 4.31098 119.335C3.34424 121.205 6.18714 123.928 7.1481 121.388C7.5577 120.291 5.82908 118.764 6.6564 117.847C8.85948 117.192 10.3527 118.377 11.4001 120.141ZM50.7581 73.0953C52.5176 77.3657 53.1225 77.4375 57.4201 78.6818C61.0045 79.7198 62.6183 82.0306 63.9907 85.2371L64.2552 85.1964C68.0933 74.6531 55.6819 72.7936 50.5111 66.5234C49.6023 65.4213 47.5495 61.0292 46.9916 60.7481C46.8887 62.3205 46.4031 67.4915 46.6349 68.6867C46.793 69.4781 47.1512 70.2159 47.6755 70.8297C48.5142 71.8257 49.6353 72.4674 50.7581 73.0953ZM62.5651 120.343C58.8858 124.742 61.9983 130.416 59.6071 135.958L62.0744 134.94C66.5151 132.35 64.4833 129.756 64.4729 125.589C64.4705 124.692 64.9923 122.974 64.8319 122.226C64.4792 122.283 64.3669 122.324 64.0252 122.438C63.1509 122.058 63.5718 121.019 62.9267 120.43L62.5651 120.343ZM60.1223 196.949C56.9647 197.626 54.7508 199.668 54.0215 202.899C53.8518 203.652 53.4422 206.135 53.4993 206.81L53.6543 206.83C53.9991 205.51 54.8577 204.815 55.8037 203.881C57.8869 202.637 59.6695 202.032 62.1153 202.587C62.9482 202.775 64.7186 203.208 64.9182 201.997C65.5454 198.672 63.273 196.859 60.1223 196.949ZM264.198 61.093C262.68 63.9898 260.851 65.6282 257.456 66.6141C251.111 68.4563 241.758 67.8256 235.593 65.1869C234.906 64.8933 234.197 64.2898 233.366 64.1065L233.217 64.2698C233.376 64.7333 233.65 64.9775 234.101 65.198C240.66 68.9129 247.515 70.6997 255.114 69.9797C261.429 69.3814 268.523 67.2129 271.95 61.4157C273.579 58.6606 273.248 53.5645 269.221 53.6377C266.676 54.8967 267.142 57.0446 269.557 57.996C270.458 58.3507 271.858 58.8933 270.663 59.9909C268.429 61.991 266.86 61.8353 264.198 61.093ZM89.2308 148.498C89.0345 148.857 88.6295 149.632 88.1494 149.661C86.2527 149.778 85.9405 151.558 84.8817 152.811C82.9546 155.095 78.8327 159.705 81.5508 162.714C82.127 162.745 82.2309 162.789 82.7277 162.482C83.1144 161.945 83.2036 161.496 83.7115 161.075C85.7298 162.159 86.8379 159.854 87.6101 158.318C89.1677 155.221 89.5979 152.216 89.4581 148.785L89.2308 148.498ZM82.8263 77.3156C81.5752 78.4533 81.1194 79.6852 81.0667 81.3979C81.0293 82.7601 81.3134 84.1119 81.8959 85.3438C83.0843 87.8728 88.7349 94.0002 90.7834 96.7116L91.0601 96.8822L91.2641 96.7848C91.2558 96.2825 91.2235 96.2711 91.1448 95.7928C90.5506 92.1804 93.0053 88.9009 89.0296 86.2447C86.4975 84.553 83.8618 84.3107 82.9692 80.7504C82.5861 79.2223 83.4273 77.7653 82.8263 77.3156ZM63.2853 230.551C63.2705 230.717 63.2558 230.882 63.241 231.049C64.228 232.523 65.009 234.124 65.7403 235.736C66.0424 236.402 66.3405 237.071 66.5998 237.754C67.7 241.184 68.6377 244.73 68.9784 248.324C69.6649 256.435 67.8855 266.722 61.397 272.277C59.6078 273.809 57.0202 274.996 54.6593 274.749C53.0103 274.575 51.1504 273.921 50.077 272.599C49.3466 271.7 48.8435 270.634 48.9741 269.465C49.1039 268.353 49.6899 267.347 50.5918 266.686C53.4647 264.567 55.5896 267.922 56.4712 267.59C56.6497 266.914 56.2187 265.74 55.8658 265.157C55.2888 264.201 54.3215 263.746 53.2941 263.429C52.6242 263.315 51.9856 263.19 51.2976 263.253C48.7462 263.481 46.6554 265.298 46.2881 267.883C45.7027 272.004 49.5735 275.347 53.4227 275.655C56.762 275.943 59.877 274.679 62.4034 272.555C67.4928 268.238 69.5265 261.191 70.0618 254.762C70.6098 248.18 69.1915 241.481 66.5093 235.484C65.9898 234.323 64.5247 230.91 63.2853 230.551ZM268.365 49.1347C261.51 49.9095 262.022 59.6556 267.421 59.3224L267.489 59.1497C267.003 58.5928 266.441 58.1622 266.084 57.5212C264.624 54.9048 267.067 51.4189 270.009 51.9062C271.27 52.1233 272.383 52.8546 273.083 53.925C276.35 58.8956 271.939 65.155 267.578 67.7124C260.356 71.9486 251.674 72.36 243.637 70.4068C242.86 70.2126 241.032 69.7461 240.343 69.4561C237.818 68.8002 235.387 67.3684 233.075 66.21C232.759 66.052 232.606 66.0365 232.283 66.0694L232.164 66.2748C232.484 67.2041 235.39 68.5988 236.418 69.0957C248.155 74.7679 267.301 74.8323 274.216 61.8397C276.867 56.857 274.753 49.1107 268.365 49.1347ZM61.6867 231.586C61.6887 231.645 61.6908 231.705 61.6926 231.763C65.2326 239.29 66.4378 248.988 63.8979 256.934C62.8635 260.169 61.4403 262.652 58.6918 264.227C58.4268 264.379 58.9479 266.444 59.0093 266.966C59.2149 268.717 58.207 271.196 56.2758 271.472C54.699 271.094 55.0611 268.267 53.3023 267.834C51.304 267.341 50.3591 269.415 51.0218 271.065C53.246 274.206 57.1653 273.533 59.8923 271.521C61.2645 270.511 62.4997 269.277 63.3982 267.818C69.473 257.952 68.8456 245.203 63.8946 235.018C63.356 233.91 62.8531 232.729 62.1438 231.735C61.9327 231.65 61.9087 231.621 61.6867 231.586ZM34.7171 136.611C32.7237 139.495 32.383 143.012 31.7119 146.377C30.9503 145.378 27.7559 140.891 26.2808 141.709C26.3417 142.133 26.245 141.858 26.4499 142.112C29.0464 145.323 28.7713 150.182 29.5628 154.115C31.539 163.928 37.9559 168.085 46.8483 171.297C49.2064 171.706 53.3823 172.553 55.6916 171.977L55.7713 171.786C54.6286 171.394 51.3467 171.441 49.8741 171.071C44.2805 169.665 39.2191 164.94 36.7372 159.866C34.4902 155.271 32.9094 148.588 34.5755 143.615C35.0859 142.091 36.3397 139.815 37.2324 138.486C36.6143 138.142 34.8506 136.653 34.7171 136.611Z" fill="#020101"/>
</svg>
